  0
SECTION
  2
HEADER
  9
$ACADVER
  1
AC1015
  9
$ACADMAINTVER
 70
6
  9
$DWGCODEPAGE
  3
ANSI_1252
  9
$EXTMIN
 10
1e+20
 20
1e+20
 30
1e+20
  9
$EXTMAX
 10
-1e+20
 20
-1e+20
 30
-1e+20
  9
$LIMMIN
 10
0.0
 20
0.0
  9
$LIMMAX
 10
420.0
 20
297.0
  9
$TDCREATE
 40
2461051.9013773147
  9
$TDUPDATE
 40
2461051.9013773147
  9
$HANDSEED
  5
10071
  9
$PEXTMIN
 10
1e+20
 20
1e+20
 30
1e+20
  9
$PEXTMAX
 10
-1e+20
 20
-1e+20
 30
-1e+20
  9
$PLIMMIN
 10
0.0
 20
0.0
  9
$PLIMMAX
 10
420.0
 20
297.0
  9
$MEASUREMENT
 70
1
  9
$FINGERPRINTGUID
  2
{B376DED4-CEE4-41C0-AAE0-1C0E42C6EAAB}
  9
$VERSIONGUID
  2
{A4B08502-8B01-49AC-9598-B1B0B2B224CF}
  0
ENDSEC
  0
SECTION
  2
CLASSES
  0
CLASS
  1
ACDBDICTIONARYWDFLT
  2
AcDbDictionaryWithDefault
  3
ObjectDBX Classes
 90
0
280
0
281
0
  0
CLASS
  1
SUN
  2
AcDbSun
  3
SCENEOE
 90
1153
280
0
281
0
  0
CLASS
  1
VISUALSTYLE
  2
AcDbVisualStyle
  3
ObjectDBX Classes
 90
4095
280
0
281
0
  0
CLASS
  1
MATERIAL
  2
AcDbMaterial
  3
ObjectDBX Classes
 90
1153
280
0
281
0
  0
CLASS
  1
SCALE
  2
AcDbScale
  3
ObjectDBX Classes
 90
1153
280
0
281
0
  0
CLASS
  1
TABLESTYLE
  2
AcDbTableStyle
  3
ObjectDBX Classes
 90
4095
280
0
281
0
  0
CLASS
  1
MLEADERSTYLE
  2
AcDbMLeaderStyle
  3
ACDB_MLEADERSTYLE_CLASS
 90
4095
280
0
281
0
  0
CLASS
  1
DICTIONARYVAR
  2
AcDbDictionaryVar
  3
ObjectDBX Classes
 90
0
280
0
281
0
  0
CLASS
  1
CELLSTYLEMAP
  2
AcDbCellStyleMap
  3
ObjectDBX Classes
 90
1152
280
0
281
0
  0
CLASS
  1
MENTALRAYRENDERSETTINGS
  2
AcDbMentalRayRenderSettings
  3
SCENEOE
 90
1024
280
0
281
0
  0
CLASS
  1
ACDBDETAILVIEWSTYLE
  2
AcDbDetailViewStyle
  3
ObjectDBX Classes
 90
1025
280
0
281
0
  0
CLASS
  1
ACDBSECTIONVIEWSTYLE
  2
AcDbSectionViewStyle
  3
ObjectDBX Classes
 90
1025
280
0
281
0
  0
CLASS
  1
RASTERVARIABLES
  2
AcDbRasterVariables
  3
ISM
 90
0
280
0
281
0
  0
CLASS
  1
ACDBPLACEHOLDER
  2
AcDbPlaceHolder
  3
ObjectDBX Classes
 90
0
280
0
281
0
  0
CLASS
  1
LAYOUT
  2
AcDbLayout
  3
ObjectDBX Classes
 90
0
280
0
281
0
  0
ENDSEC
  0
SECTION
  2
TABLES
  0
TABLE
  2
VPORT
  5
8
330
0
100
AcDbSymbolTable
 70
1
  0
VPORT
  5
2E
330
8
100
AcDbSymbolTableRecord
100
AcDbViewportTableRecord
  2
*ACTIVE
 70
0
 10
0.0
 20
0.0
 11
1.0
 21
1.0
 12
210.0
 22
148.5
 13
0.0
 23
0.0
 14
10.0
 24
10.0
 15
10.0
 25
10.0
 16
0.0
 26
0.0
 36
1.0
 17
0.0
 27
0.0
 37
0.0
 40
341.0
 41
1.24
 42
50.0
 43
0.0
 44
0.0
 50
0.0
 51
0.0
 71
0
 72
100
 73
1
 74
3
 75
0
 76
0
 77
0
 78
0
281
0
 65
0
146
0.0
  0
ENDTAB
  0
TABLE
  2
LTYPE
  5
5
330
0
100
AcDbSymbolTable
 70
3
  0
LTYPE
  5
14
330
5
100
AcDbSymbolTableRecord
100
AcDbLinetypeTableRecord
  2
BYBLOCK
 70
0
  3

 72
65
 73
0
 40
0.0
  0
LTYPE
  5
15
330
5
100
AcDbSymbolTableRecord
100
AcDbLinetypeTableRecord
  2
BYLAYER
 70
0
  3

 72
65
 73
0
 40
0.0
  0
LTYPE
  5
16
330
5
100
AcDbSymbolTableRecord
100
AcDbLinetypeTableRecord
  2
CONTINUOUS
 70
0
  3
Solid line
 72
65
 73
0
 40
0.0
  0
ENDTAB
  0
TABLE
  2
LAYER
  5
2
330
0
100
AcDbSymbolTable
 70
4
  0
LAYER
  5
50
330
2
100
AcDbSymbolTableRecord
100
AcDbLayerTableRecord
  2
0
 70
0
 62
7
  6
CONTINUOUS
370
-3
390
10060
  0
LAYER
  5
51
330
2
100
AcDbSymbolTableRecord
100
AcDbLayerTableRecord
  2
Layer_1
 70
0
 62
7
  6
CONTINUOUS
370
-3
390
10060
  0
LAYER
  5
10069
330
2
100
AcDbSymbolTableRecord
100
AcDbLayerTableRecord
  2
Defpoints
 70
0
 62
7
  6
Continuous
290
0
370
-3
390
10060
  0
LAYER
  5
1006C
330
2
100
AcDbSymbolTableRecord
100
AcDbLayerTableRecord
  2
GEOMETRY
 70
0
 62
7
  6
CONTINUOUS
370
13
390
10060
  0
ENDTAB
  0
TABLE
  2
STYLE
  5
3
330
0
100
AcDbSymbolTable
 70
1
  0
STYLE
  5
11
330
3
100
AcDbSymbolTableRecord
100
AcDbTextStyleTableRecord
  2
STANDARD
 70
0
 40
0.0
 41
1.0
 50
0.0
 71
0
 42
2.5
  3
txt
  4

  0
ENDTAB
  0
TABLE
  2
VIEW
  5
6
330
0
100
AcDbSymbolTable
 70
0
  0
ENDTAB
  0
TABLE
  2
UCS
  5
7
330
0
100
AcDbSymbolTable
 70
0
  0
ENDTAB
  0
TABLE
  2
APPID
  5
9
330
0
100
AcDbSymbolTable
 70
3
  0
APPID
  5
12
330
9
100
AcDbSymbolTableRecord
100
AcDbRegAppTableRecord
  2
ACAD
 70
0
  0
APPID
  5
1006D
330
9
100
AcDbSymbolTableRecord
100
AcDbRegAppTableRecord
  2
HATCHBACKGROUNDCOLOR
 70
0
  0
APPID
  5
1006E
330
9
100
AcDbSymbolTableRecord
100
AcDbRegAppTableRecord
  2
EZDXF
 70
0
  0
ENDTAB
  0
TABLE
  2
DIMSTYLE
  5
A
330
0
100
AcDbSymbolTable
 70
2
100
AcDbDimStyleTable
  0
DIMSTYLE
105
27
330
A
100
AcDbSymbolTableRecord
100
AcDbDimStyleTableRecord
  2
ISO-25
 70
0
  3

  4

 40
1.0
 41
2.5
 42
0.625
 43
3.75
 44
1.25
 45
0.0
 46
0.0
 47
0.0
 48
0.0
140
2.5
141
2.5
142
0.0
143
0.03937007874016
144
1.0
145
0.0
146
1.0
147
0.625
148
0.0
 71
0
 72
0
 73
0
 74
0
 75
0
 76
0
 77
1
 78
8
 79
3
170
0
171
3
172
1
173
0
174
0
175
0
176
0
177
0
178
0
179
2
271
2
272
2
273
2
274
3
275
0
276
0
277
2
278
44
279
0
280
0
281
0
282
0
283
0
284
8
285
0
286
0
288
0
289
3
340
11
371
-2
372
-2
  0
DIMSTYLE
105
1006A
330
A
100
AcDbSymbolTableRecord
100
AcDbDimStyleTableRecord
  2
Standard
 70
0
  3

  4

 40
1.0
 41
2.5
 42
0.625
 43
3.75
 44
1.25
 45
0.0
 46
0.0
 47
0.0
 48
0.0
140
2.5
141
2.5
142
0.0
143
0.03937007874
144
1.0
145
0.0
146
1.0
147
0.625
148
0.0
 71
0
 72
0
 73
0
 74
0
 75
0
 76
0
 77
1
 78
8
 79
3
170
0
171
3
172
1
173
0
174
0
175
0
176
0
177
0
178
0
179
2
271
2
272
2
273
2
274
3
275
0
276
0
277
2
278
44
279
0
280
0
281
0
282
0
283
0
284
8
285
0
286
0
288
0
289
3
371
-2
372
-2
  0
ENDTAB
  0
TABLE
  2
BLOCK_RECORD
  5
1
330
0
100
AcDbSymbolTable
 70
22
  0
BLOCK_RECORD
  5
1F
330
1
100
AcDbSymbolTableRecord
100
AcDbBlockTableRecord
  2
*MODEL_SPACE
340
10064
  0
BLOCK_RECORD
  5
1B
330
1
100
AcDbSymbolTableRecord
100
AcDbBlockTableRecord
  2
*PAPER_SPACE
340
10065
  0
BLOCK_RECORD
  5
FFFF
330
1
100
AcDbSymbolTableRecord
100
AcDbBlockTableRecord
  2
_CLOSEDFILLED
340
0
  0
BLOCK_RECORD
  5
10003
330
1
100
AcDbSymbolTableRecord
100
AcDbBlockTableRecord
  2
_CLOSEDBLANK
340
0
  0
BLOCK_RECORD
  5
10007
330
1
100
AcDbSymbolTableRecord
100
AcDbBlockTableRecord
  2
_DOTSMALL
340
0
  0
BLOCK_RECORD
  5
1000B
330
1
100
AcDbSymbolTableRecord
100
AcDbBlockTableRecord
  2
_SMALL
340
0
  0
BLOCK_RECORD
  5
1000F
330
1
100
AcDbSymbolTableRecord
100
AcDbBlockTableRecord
  2
_ARCHTICK
340
0
  0
BLOCK_RECORD
  5
10013
330
1
100
AcDbSymbolTableRecord
100
AcDbBlockTableRecord
  2
_DATUMBLANK
340
0
  0
BLOCK_RECORD
  5
10017
330
1
100
AcDbSymbolTableRecord
100
AcDbBlockTableRecord
  2
_OBLIQUE
340
0
  0
BLOCK_RECORD
  5
1001B
330
1
100
AcDbSymbolTableRecord
100
AcDbBlockTableRecord
  2
_INTEGRAL
340
0
  0
BLOCK_RECORD
  5
10020
330
1
100
AcDbSymbolTableRecord
100
AcDbBlockTableRecord
  2
_NONE
340
0
  0
BLOCK_RECORD
  5
10023
330
1
100
AcDbSymbolTableRecord
100
AcDbBlockTableRecord
  2
_DOTBLANK
340
0
  0
BLOCK_RECORD
  5
10028
330
1
100
AcDbSymbolTableRecord
100
AcDbBlockTableRecord
  2
_CLOSED
340
0
  0
BLOCK_RECORD
  5
1002D
330
1
100
AcDbSymbolTableRecord
100
AcDbBlockTableRecord
  2
_BOXFILLED
340
0
  0
BLOCK_RECORD
  5
10032
330
1
100
AcDbSymbolTableRecord
100
AcDbBlockTableRecord
  2
_ORIGIN
340
0
  0
BLOCK_RECORD
  5
10037
330
1
100
AcDbSymbolTableRecord
100
AcDbBlockTableRecord
  2
_DATUMFILLED
340
0
  0
BLOCK_RECORD
  5
1003B
330
1
100
AcDbSymbolTableRecord
100
AcDbBlockTableRecord
  2
_ORIGIN2
340
0
  0
BLOCK_RECORD
  5
10041
330
1
100
AcDbSymbolTableRecord
100
AcDbBlockTableRecord
  2
_OPEN
340
0
  0
BLOCK_RECORD
  5
10046
330
1
100
AcDbSymbolTableRecord
100
AcDbBlockTableRecord
  2
_OPEN30
340
0
  0
BLOCK_RECORD
  5
1004B
330
1
100
AcDbSymbolTableRecord
100
AcDbBlockTableRecord
  2
_DOT
340
0
  0
BLOCK_RECORD
  5
10050
330
1
100
AcDbSymbolTableRecord
100
AcDbBlockTableRecord
  2
_BOXBLANK
340
0
  0
BLOCK_RECORD
  5
10055
330
1
100
AcDbSymbolTableRecord
100
AcDbBlockTableRecord
  2
_OPEN90
340
0
  0
ENDTAB
  0
ENDSEC
  0
SECTION
  2
BLOCKS
  0
BLOCK
  5
20
330
1F
100
AcDbEntity
  8
0
100
AcDbBlockBegin
  2
*MODEL_SPACE
 70
0
 10
0.0
 20
0.0
 30
0.0
  3
*MODEL_SPACE
  1

  0
ENDBLK
  5
21
330
1F
100
AcDbEntity
  8
0
100
AcDbBlockEnd
  0
BLOCK
  5
1C
330
1B
100
AcDbEntity
 67
1
  8
0
100
AcDbBlockBegin
  2
*PAPER_SPACE
 70
0
 10
0.0
 20
0.0
 30
0.0
  3
*PAPER_SPACE
  1

  0
ENDBLK
  5
1D
330
1B
100
AcDbEntity
 67
1
  8
0
100
AcDbBlockEnd
  0
BLOCK
  5
10000
330
FFFF
100
AcDbEntity
  8
0
100
AcDbBlockBegin
  2
_CLOSEDFILLED
 70
0
 10
0.0
 20
0.0
 30
0.0
  3
_CLOSEDFILLED
  1

  0
SOLID
  5
10002
330
FFFF
100
AcDbEntity
  8
0
  6
BYBLOCK
 62
0
100
AcDbTrace
 10
-1.0
 20
0.16439898372402537
 30
0.0
 11
0.0
 21
0.0
 31
0.0
 12
-1.0
 22
-0.16439898372402537
 32
0.0
 13
-1.0
 23
-0.16439898372402537
 33
0.0
  0
ENDBLK
  5
10001
330
FFFF
100
AcDbEntity
  8
0
100
AcDbBlockEnd
  0
BLOCK
  5
10004
330
10003
100
AcDbEntity
  8
0
100
AcDbBlockBegin
  2
_CLOSEDBLANK
 70
0
 10
0.0
 20
0.0
 30
0.0
  3
_CLOSEDBLANK
  1

  0
LWPOLYLINE
  5
10006
330
10003
100
AcDbEntity
  8
0
  6
BYBLOCK
 62
0
100
AcDbPolyline
 90
3
 70
1
 10
-1.0
 20
0.16439898372402537
 10
0.0
 20
0.0
 10
-1.0
 20
-0.16439898372402537
  0
ENDBLK
  5
10005
330
10003
100
AcDbEntity
  8
0
100
AcDbBlockEnd
  0
BLOCK
  5
10008
330
10007
100
AcDbEntity
  8
0
100
AcDbBlockBegin
  2
_DOTSMALL
 70
0
 10
0.0
 20
0.0
 30
0.0
  3
_DOTSMALL
  1

  0
LWPOLYLINE
  5
1000A
330
10007
100
AcDbEntity
  8
0
  6
BYBLOCK
 62
0
100
AcDbPolyline
 90
2
 70
1
 43
0.125
 10
-0.0625
 20
0.0
 42
1.0
 10
0.0625
 20
0.0
 42
1.0
  0
ENDBLK
  5
10009
330
10007
100
AcDbEntity
  8
0
100
AcDbBlockEnd
  0
BLOCK
  5
1000C
330
1000B
100
AcDbEntity
  8
0
100
AcDbBlockBegin
  2
_SMALL
 70
0
 10
0.0
 20
0.0
 30
0.0
  3
_SMALL
  1

  0
CIRCLE
  5
1000E
330
1000B
100
AcDbEntity
  8
0
  6
BYBLOCK
 62
0
100
AcDbCircle
 10
0.0
 20
0.0
 30
0.0
 40
0.25
  0
ENDBLK
  5
1000D
330
1000B
100
AcDbEntity
  8
0
100
AcDbBlockEnd
  0
BLOCK
  5
10010
330
1000F
100
AcDbEntity
  8
0
100
AcDbBlockBegin
  2
_ARCHTICK
 70
0
 10
0.0
 20
0.0
 30
0.0
  3
_ARCHTICK
  1

  0
LWPOLYLINE
  5
10012
330
1000F
100
AcDbEntity
  8
0
  6
BYBLOCK
 62
0
100
AcDbPolyline
 90
2
 70
0
 43
0.15
 10
-0.5
 20
-0.5
 10
0.5
 20
0.5
  0
ENDBLK
  5
10011
330
1000F
100
AcDbEntity
  8
0
100
AcDbBlockEnd
  0
BLOCK
  5
10014
330
10013
100
AcDbEntity
  8
0
100
AcDbBlockBegin
  2
_DATUMBLANK
 70
0
 10
0.0
 20
0.0
 30
0.0
  3
_DATUMBLANK
  1

  0
LWPOLYLINE
  5
10016
330
10013
100
AcDbEntity
  8
0
  6
BYBLOCK
 62
0
100
AcDbPolyline
 90
3
 70
1
 10
0.0
 20
0.577350269
 10
0.0
 20
-0.577350269
 10
-1.0
 20
0.0
  0
ENDBLK
  5
10015
330
10013
100
AcDbEntity
  8
0
100
AcDbBlockEnd
  0
BLOCK
  5
10018
330
10017
100
AcDbEntity
  8
0
100
AcDbBlockBegin
  2
_OBLIQUE
 70
0
 10
0.0
 20
0.0
 30
0.0
  3
_OBLIQUE
  1

  0
LINE
  5
1001A
330
10017
100
AcDbEntity
  8
0
  6
BYBLOCK
 62
0
100
AcDbLine
 10
-0.5
 20
-0.5
 30
0.0
 11
0.5
 21
0.5
 31
0.0
  0
ENDBLK
  5
10019
330
10017
100
AcDbEntity
  8
0
100
AcDbBlockEnd
  0
BLOCK
  5
1001C
330
1001B
100
AcDbEntity
  8
0
100
AcDbBlockBegin
  2
_INTEGRAL
 70
0
 10
0.0
 20
0.0
 30
0.0
  3
_INTEGRAL
  1

  0
ARC
  5
1001E
330
1001B
100
AcDbEntity
  8
0
  6
BYBLOCK
 62
0
100
AcDbCircle
 10
-0.3535534
 20
0.0
 30
0.0
 40
0.3535534
100
AcDbArc
 50
-90.0
 51
0.0
  0
ARC
  5
1001F
330
1001B
100
AcDbEntity
  8
0
  6
BYBLOCK
 62
0
100
AcDbCircle
 10
0.3535534
 20
0.0
 30
0.0
 40
0.3535534
100
AcDbArc
 50
90.0
 51
180.0
  0
ENDBLK
  5
1001D
330
1001B
100
AcDbEntity
  8
0
100
AcDbBlockEnd
  0
BLOCK
  5
10021
330
10020
100
AcDbEntity
  8
0
100
AcDbBlockBegin
  2
_NONE
 70
0
 10
0.0
 20
0.0
 30
0.0
  3
_NONE
  1

  0
ENDBLK
  5
10022
330
10020
100
AcDbEntity
  8
0
100
AcDbBlockEnd
  0
BLOCK
  5
10024
330
10023
100
AcDbEntity
  8
0
100
AcDbBlockBegin
  2
_DOTBLANK
 70
0
 10
0.0
 20
0.0
 30
0.0
  3
_DOTBLANK
  1

  0
CIRCLE
  5
10026
330
10023
100
AcDbEntity
  8
0
  6
BYBLOCK
 62
0
100
AcDbCircle
 10
0.0
 20
0.0
 30
0.0
 40
0.5
  0
LINE
  5
10027
330
10023
100
AcDbEntity
  8
0
  6
BYBLOCK
 62
0
100
AcDbLine
 10
-0.5
 20
0.0
 30
0.0
 11
-1.0
 21
0.0
 31
0.0
  0
ENDBLK
  5
10025
330
10023
100
AcDbEntity
  8
0
100
AcDbBlockEnd
  0
BLOCK
  5
10029
330
10028
100
AcDbEntity
  8
0
100
AcDbBlockBegin
  2
_CLOSED
 70
0
 10
0.0
 20
0.0
 30
0.0
  3
_CLOSED
  1

  0
LWPOLYLINE
  5
1002B
330
10028
100
AcDbEntity
  8
0
  6
BYBLOCK
 62
0
100
AcDbPolyline
 90
3
 70
1
 10
-1.0
 20
0.16439898372402537
 10
0.0
 20
0.0
 10
-1.0
 20
-0.16439898372402537
  0
LINE
  5
1002C
330
10028
100
AcDbEntity
  8
0
  6
BYBLOCK
 62
0
100
AcDbLine
 10
0.0
 20
0.0
 30
0.0
 11
-1.0
 21
0.0
 31
0.0
  0
ENDBLK
  5
1002A
330
10028
100
AcDbEntity
  8
0
100
AcDbBlockEnd
  0
BLOCK
  5
1002E
330
1002D
100
AcDbEntity
  8
0
100
AcDbBlockBegin
  2
_BOXFILLED
 70
0
 10
0.0
 20
0.0
 30
0.0
  3
_BOXFILLED
  1

  0
SOLID
  5
10030
330
1002D
100
AcDbEntity
  8
0
  6
BYBLOCK
 62
0
100
AcDbTrace
 10
-0.5
 20
-0.5
 30
0.0
 11
0.5
 21
-0.5
 31
0.0
 12
-0.5
 22
0.5
 32
0.0
 13
0.5
 23
0.5
 33
0.0
  0
LINE
  5
10031
330
1002D
100
AcDbEntity
  8
0
  6
BYBLOCK
 62
0
100
AcDbLine
 10
-0.5
 20
0.0
 30
0.0
 11
-1.0
 21
0.0
 31
0.0
  0
ENDBLK
  5
1002F
330
1002D
100
AcDbEntity
  8
0
100
AcDbBlockEnd
  0
BLOCK
  5
10033
330
10032
100
AcDbEntity
  8
0
100
AcDbBlockBegin
  2
_ORIGIN
 70
0
 10
0.0
 20
0.0
 30
0.0
  3
_ORIGIN
  1

  0
CIRCLE
  5
10035
330
10032
100
AcDbEntity
  8
0
  6
BYBLOCK
 62
0
100
AcDbCircle
 10
0.0
 20
0.0
 30
0.0
 40
0.5
  0
LINE
  5
10036
330
10032
100
AcDbEntity
  8
0
  6
BYBLOCK
 62
0
100
AcDbLine
 10
0.0
 20
0.0
 30
0.0
 11
-1.0
 21
0.0
 31
0.0
  0
ENDBLK
  5
10034
330
10032
100
AcDbEntity
  8
0
100
AcDbBlockEnd
  0
BLOCK
  5
10038
330
10037
100
AcDbEntity
  8
0
100
AcDbBlockBegin
  2
_DATUMFILLED
 70
0
 10
0.0
 20
0.0
 30
0.0
  3
_DATUMFILLED
  1

  0
SOLID
  5
1003A
330
10037
100
AcDbEntity
  8
0
  6
BYBLOCK
 62
0
100
AcDbTrace
 10
0.0
 20
0.577350269
 30
0.0
 11
0.0
 21
-0.577350269
 31
0.0
 12
-1.0
 22
0.0
 32
0.0
 13
-1.0
 23
0.0
 33
0.0
  0
ENDBLK
  5
10039
330
10037
100
AcDbEntity
  8
0
100
AcDbBlockEnd
  0
BLOCK
  5
1003C
330
1003B
100
AcDbEntity
  8
0
100
AcDbBlockBegin
  2
_ORIGIN2
 70
0
 10
0.0
 20
0.0
 30
0.0
  3
_ORIGIN2
  1

  0
CIRCLE
  5
1003E
330
1003B
100
AcDbEntity
  8
0
  6
BYBLOCK
 62
0
100
AcDbCircle
 10
0.0
 20
0.0
 30
0.0
 40
0.5
  0
CIRCLE
  5
1003F
330
1003B
100
AcDbEntity
  8
0
  6
BYBLOCK
 62
0
100
AcDbCircle
 10
0.0
 20
0.0
 30
0.0
 40
0.25
  0
LINE
  5
10040
330
1003B
100
AcDbEntity
  8
0
  6
BYBLOCK
 62
0
100
AcDbLine
 10
-0.5
 20
0.0
 30
0.0
 11
-1.0
 21
0.0
 31
0.0
  0
ENDBLK
  5
1003D
330
1003B
100
AcDbEntity
  8
0
100
AcDbBlockEnd
  0
BLOCK
  5
10042
330
10041
100
AcDbEntity
  8
0
100
AcDbBlockBegin
  2
_OPEN
 70
0
 10
0.0
 20
0.0
 30
0.0
  3
_OPEN
  1

  0
LWPOLYLINE
  5
10044
330
10041
100
AcDbEntity
  8
0
  6
BYBLOCK
 62
0
100
AcDbPolyline
 90
3
 70
0
 10
-1.0
 20
0.16439898372402537
 10
0.0
 20
0.0
 10
-1.0
 20
-0.16439898372402537
  0
LINE
  5
10045
330
10041
100
AcDbEntity
  8
0
  6
BYBLOCK
 62
0
100
AcDbLine
 10
0.0
 20
0.0
 30
0.0
 11
-1.0
 21
0.0
 31
0.0
  0
ENDBLK
  5
10043
330
10041
100
AcDbEntity
  8
0
100
AcDbBlockEnd
  0
BLOCK
  5
10047
330
10046
100
AcDbEntity
  8
0
100
AcDbBlockBegin
  2
_OPEN30
 70
0
 10
0.0
 20
0.0
 30
0.0
  3
_OPEN30
  1

  0
LWPOLYLINE
  5
10049
330
10046
100
AcDbEntity
  8
0
  6
BYBLOCK
 62
0
100
AcDbPolyline
 90
3
 70
0
 10
-1.0
 20
0.25881904510252074
 10
0.0
 20
0.0
 10
-1.0
 20
-0.25881904510252074
  0
LINE
  5
1004A
330
10046
100
AcDbEntity
  8
0
  6
BYBLOCK
 62
0
100
AcDbLine
 10
0.0
 20
0.0
 30
0.0
 11
-1.0
 21
0.0
 31
0.0
  0
ENDBLK
  5
10048
330
10046
100
AcDbEntity
  8
0
100
AcDbBlockEnd
  0
BLOCK
  5
1004C
330
1004B
100
AcDbEntity
  8
0
100
AcDbBlockBegin
  2
_DOT
 70
0
 10
0.0
 20
0.0
 30
0.0
  3
_DOT
  1

  0
LINE
  5
1004E
330
1004B
100
AcDbEntity
  8
0
  6
BYBLOCK
 62
0
100
AcDbLine
 10
-0.5
 20
0.0
 30
0.0
 11
-1.0
 21
0.0
 31
0.0
  0
LWPOLYLINE
  5
1004F
330
1004B
100
AcDbEntity
  8
0
  6
BYBLOCK
 62
0
100
AcDbPolyline
 90
2
 70
1
 43
0.5
 10
-0.25
 20
0.0
 42
1.0
 10
0.25
 20
0.0
 42
1.0
  0
ENDBLK
  5
1004D
330
1004B
100
AcDbEntity
  8
0
100
AcDbBlockEnd
  0
BLOCK
  5
10051
330
10050
100
AcDbEntity
  8
0
100
AcDbBlockBegin
  2
_BOXBLANK
 70
0
 10
0.0
 20
0.0
 30
0.0
  3
_BOXBLANK
  1

  0
LWPOLYLINE
  5
10053
330
10050
100
AcDbEntity
  8
0
  6
BYBLOCK
 62
0
100
AcDbPolyline
 90
4
 70
1
 10
-0.5
 20
-0.5
 10
0.5
 20
-0.5
 10
0.5
 20
0.5
 10
-0.5
 20
0.5
  0
LINE
  5
10054
330
10050
100
AcDbEntity
  8
0
  6
BYBLOCK
 62
0
100
AcDbLine
 10
-0.5
 20
0.0
 30
0.0
 11
-1.0
 21
0.0
 31
0.0
  0
ENDBLK
  5
10052
330
10050
100
AcDbEntity
  8
0
100
AcDbBlockEnd
  0
BLOCK
  5
10056
330
10055
100
AcDbEntity
  8
0
100
AcDbBlockBegin
  2
_OPEN90
 70
0
 10
0.0
 20
0.0
 30
0.0
  3
_OPEN90
  1

  0
LWPOLYLINE
  5
10058
330
10055
100
AcDbEntity
  8
0
  6
BYBLOCK
 62
0
100
AcDbPolyline
 90
3
 70
0
 10
-1.0
 20
0.7071067811865475
 10
0.0
 20
0.0
 10
-1.0
 20
-0.7071067811865475
  0
LINE
  5
10059
330
10055
100
AcDbEntity
  8
0
  6
BYBLOCK
 62
0
100
AcDbLine
 10
0.0
 20
0.0
 30
0.0
 11
-1.0
 21
0.0
 31
0.0
  0
ENDBLK
  5
10057
330
10055
100
AcDbEntity
  8
0
100
AcDbBlockEnd
  0
ENDSEC
  0
SECTION
  2
ENTITIES
  0
LWPOLYLINE
  5
100
330
1F
100
AcDbEntity
  8
GEOMETRY
 62
1
100
AcDbPolyline
 90
2
 70
0
 10
93.45251
 20
65.947529
 10
91.881227
 20
64.376246
  0
LWPOLYLINE
  5
101
330
1F
100
AcDbEntity
  8
GEOMETRY
 62
1
100
AcDbPolyline
 90
2
 70
0
 10
77.758875
 20
50.253894
 10
76.190901
 20
48.68592
  0
LWPOLYLINE
  5
102
330
1F
100
AcDbEntity
  8
GEOMETRY
 62
1
100
AcDbPolyline
 90
2
 70
0
 10
77.759079
 20
152.344719
 10
76.191537
 20
153.912261
  0
LWPOLYLINE
  5
103
330
1F
100
AcDbEntity
  8
GEOMETRY
 62
1
100
AcDbPolyline
 90
2
 70
0
 10
93.453046
 20
136.650753
 10
91.881525
 20
138.222274
  0
LWPOLYLINE
  5
104
330
1F
100
AcDbEntity
  8
GEOMETRY
 62
1
100
AcDbPolyline
 90
2
 70
0
 10
109.2315
 20
120.872299
 10
107.645014
 20
122.458785
  0
LWPOLYLINE
  5
105
330
1F
100
AcDbEntity
  8
GEOMETRY
 62
1
100
AcDbPolyline
 90
2
 70
0
 10
109.230864
 20
81.725883
 10
107.64502
 20
80.140039
  0
LWPOLYLINE
  5
106
330
1F
100
AcDbEntity
  8
GEOMETRY
 62
1
100
AcDbPolyline
 90
2
 70
0
 10
168.846162
 20
61.257636
 10
170.41769
 20
59.686109
  0
LWPOLYLINE
  5
107
330
1F
100
AcDbEntity
  8
GEOMETRY
 62
1
100
AcDbPolyline
 90
2
 70
0
 10
184.540141
 20
45.563657
 10
186.107678
 20
43.996121
  0
LWPOLYLINE
  5
108
330
1F
100
AcDbEntity
  8
GEOMETRY
 62
1
100
AcDbPolyline
 90
2
 70
0
 10
82.449302
 20
45.563467
 10
80.881329
 20
43.995493
  0
LWPOLYLINE
  5
109
330
1F
100
AcDbEntity
  8
GEOMETRY
 62
1
100
AcDbPolyline
 90
2
 70
0
 10
98.142937
 20
61.257102
 10
96.571654
 20
59.685819
  0
LWPOLYLINE
  5
10a
330
1F
100
AcDbEntity
  8
GEOMETRY
 62
1
100
AcDbPolyline
 90
2
 70
0
 10
113.921291
 20
77.035456
 10
112.335447
 20
75.449612
  0
LWPOLYLINE
  5
10b
330
1F
100
AcDbEntity
  8
GEOMETRY
 62
1
100
AcDbPolyline
 90
2
 70
0
 10
153.067708
 20
77.03609
 10
154.654201
 20
75.449597
  0
LWPOLYLINE
  5
10c
330
1F
100
AcDbEntity
  8
GEOMETRY
 62
1
100
AcDbPolyline
 90
2
 70
0
 10
173.536057
 20
136.650221
 10
175.108001
 20
138.222166
  0
LWPOLYLINE
  5
10d
330
1F
100
AcDbEntity
  8
GEOMETRY
 62
1
100
AcDbPolyline
 90
2
 70
0
 10
189.230353
 20
152.344518
 10
190.797665
 20
153.91183
  0
LWPOLYLINE
  5
10e
330
1F
100
AcDbEntity
  8
GEOMETRY
 62
1
100
AcDbPolyline
 90
2
 70
0
 10
189.230163
 20
50.253679
 10
190.797699
 20
48.686142
  0
LWPOLYLINE
  5
10f
330
1F
100
AcDbEntity
  8
GEOMETRY
 62
1
100
AcDbPolyline
 90
2
 70
0
 10
173.536184
 20
65.947658
 10
175.107711
 20
64.37613
  0
LWPOLYLINE
  5
110
330
1F
100
AcDbEntity
  8
GEOMETRY
 62
1
100
AcDbPolyline
 90
2
 70
0
 10
157.75773
 20
81.726112
 10
159.344223
 20
80.139619
  0
LWPOLYLINE
  5
111
330
1F
100
AcDbEntity
  8
GEOMETRY
 62
1
100
AcDbPolyline
 90
2
 70
0
 10
157.757702
 20
120.871867
 10
159.344208
 20
122.458373
  0
LWPOLYLINE
  5
112
330
1F
100
AcDbEntity
  8
GEOMETRY
 62
1
100
AcDbPolyline
 90
2
 70
0
 10
98.143067
 20
141.340774
 10
96.571546
 20
142.912295
  0
LWPOLYLINE
  5
113
330
1F
100
AcDbEntity
  8
GEOMETRY
 62
1
100
AcDbPolyline
 90
2
 70
0
 10
82.449101
 20
157.034741
 10
80.881559
 20
158.602283
  0
LWPOLYLINE
  5
114
330
1F
100
AcDbEntity
  8
GEOMETRY
 62
1
100
AcDbPolyline
 90
2
 70
0
 10
184.539926
 20
157.034945
 10
186.107238
 20
158.602257
  0
LWPOLYLINE
  5
115
330
1F
100
AcDbEntity
  8
GEOMETRY
 62
1
100
AcDbPolyline
 90
2
 70
0
 10
168.845629
 20
141.340648
 10
170.417574
 20
142.912593
  0
LWPOLYLINE
  5
116
330
1F
100
AcDbEntity
  8
GEOMETRY
 62
1
100
AcDbPolyline
 90
2
 70
0
 10
153.067275
 20
125.562294
 10
154.653781
 20
127.1488
  0
SPLINE
  5
117
330
1F
100
AcDbEntity
  8
GEOMETRY
 62
1
100
AcDbSpline
 70
0
 71
3
 72
10
 73
6
 74
4
 40
0.0
 40
0.0
 40
0.0
 40
0.0
 40
1.228908
 40
2.417364
 40
3.646469
 40
3.646469
 40
3.646469
 40
3.646469
 10
91.881525
 20
138.222274
 30
0.0
 10
91.54133
 20
138.465158
 30
0.0
 10
90.872138
 20
138.94293
 30
0.0
 10
89.539759
 20
138.876668
 30
0.0
 10
88.92129
 20
138.334715
 30
0.0
 10
88.606856
 20
138.059182
 30
0.0
 11
91.881525
 21
138.222274
 31
0.0
 11
90.805612
 21
138.816099
 31
0.0
 11
89.618624
 21
138.757053
 31
0.0
 11
88.606856
 21
138.059182
 31
0.0
  0
SPLINE
  5
118
330
1F
100
AcDbEntity
  8
GEOMETRY
 62
1
100
AcDbSpline
 70
0
 71
3
 72
10
 73
6
 74
4
 40
0.0
 40
0.0
 40
0.0
 40
0.0
 40
1.080521
 40
2.13252
 40
3.213036
 40
3.213036
 40
3.213036
 40
3.213036
 10
93.607004
 20
133.694431
 30
0.0
 10
93.793943
 20
134.008654
 30
0.0
 10
94.162888
 20
134.628807
 30
0.0
 10
94.103491
 20
135.779893
 30
0.0
 10
93.672664
 20
136.358768
 30
0.0
 10
93.45437
 20
136.652076
 30
0.0
 11
93.607004
 21
133.694431
 31
0.0
 11
94.062982
 21
134.674028
 31
0.0
 11
94.008767
 21
135.724629
 31
0.0
 11
93.45437
 21
136.652076
 31
0.0
  0
SPLINE
  5
119
330
1F
100
AcDbEntity
  8
GEOMETRY
 62
1
100
AcDbSpline
 70
0
 71
3
 72
10
 73
6
 74
4
 40
0.0
 40
0.0
 40
0.0
 40
0.0
 40
1.276626
 40
2.508538
 40
3.785296
 40
3.785296
 40
3.785296
 40
3.785296
 10
107.647661
 20
122.461433
 30
0.0
 10
107.29197
 20
122.711939
 30
0.0
 10
106.593045
 20
123.204178
 30
0.0
 10
105.203689
 20
123.089432
 30
0.0
 10
104.595
 20
122.489112
 30
0.0
 10
104.285215
 20
122.183586
 30
0.0
 11
107.647661
 21
122.461433
 31
0.0
 11
106.52314
 21
123.065772
 31
0.0
 11
105.295408
 21
122.964368
 31
0.0
 11
104.285215
 21
122.183586
 31
0.0
  0
SPLINE
  5
11a
330
1F
100
AcDbEntity
  8
GEOMETRY
 62
1
100
AcDbSpline
 70
0
 71
3
 72
10
 73
6
 74
4
 40
0.0
 40
0.0
 40
0.0
 40
0.0
 40
1.026858
 40
2.028959
 40
3.055832
 40
3.055832
 40
3.055832
 40
3.055832
 10
109.482693
 20
118.045102
 30
0.0
 10
109.640024
 20
118.35427
 30
0.0
 10
109.950892
 20
118.965152
 30
0.0
 10
109.855093
 20
120.049901
 30
0.0
 10
109.441928
 20
120.596823
 30
0.0
 10
109.232823
 20
120.873623
 30
0.0
 11
109.482693
 21
118.045102
 31
0.0
 11
109.858768
 21
119.000615
 31
0.0
 11
109.770601
 21
119.99883
 31
0.0
 11
109.232823
 21
120.873623
 31
0.0
  0
SPLINE
  5
11b
330
1F
100
AcDbEntity
  8
GEOMETRY
 62
1
100
AcDbSpline
 70
0
 71
3
 72
10
 73
6
 74
4
 40
0.0
 40
0.0
 40
0.0
 40
0.0
 40
1.026963
 40
2.02904
 40
3.055901
 40
3.055901
 40
3.055901
 40
3.055901
 10
109.232188
 20
81.727207
 30
0.0
 10
109.441383
 20
82.003979
 30
0.0
 10
109.854703
 20
82.550816
 30
0.0
 10
109.950733
 20
83.635572
 30
0.0
 10
109.639985
 20
84.246509
 30
0.0
 10
109.482713
 20
84.555708
 30
0.0
 11
109.232188
 21
81.727207
 31
0.0
 11
109.770226
 21
82.601946
 31
0.0
 11
109.858601
 21
83.600119
 31
0.0
 11
109.482713
 21
84.555708
 31
0.0
  0
SPLINE
  5
11c
330
1F
100
AcDbEntity
  8
GEOMETRY
 62
1
100
AcDbSpline
 70
0
 71
3
 72
10
 73
6
 74
4
 40
0.0
 40
0.0
 40
0.0
 40
0.0
 40
1.276714
 40
2.508703
 40
3.786116
 40
3.786116
 40
3.786116
 40
3.786116
 10
104.28358
 20
80.418482
 30
0.0
 10
104.593278
 20
80.112868
 30
0.0
 10
105.201824
 20
79.512347
 30
0.0
 10
106.591611
 20
79.397735
 30
0.0
 10
107.290558
 20
79.890505
 30
0.0
 10
107.646357
 20
80.14135
 30
0.0
 11
104.28358
 21
80.418482
 31
0.0
 11
105.293566
 21
79.637504
 31
0.0
 11
106.521382
 21
79.536192
 31
0.0
 11
107.646357
 21
80.14135
 31
0.0
  0
SPLINE
  5
11d
330
1F
100
AcDbEntity
  8
GEOMETRY
 62
1
100
AcDbSpline
 70
0
 71
3
 72
10
 73
6
 74
4
 40
0.0
 40
0.0
 40
0.0
 40
0.0
 40
1.080312
 40
2.132354
 40
3.212928
 40
3.212928
 40
3.212928
 40
3.212928
 10
93.453853
 20
65.948833
 30
0.0
 10
93.672133
 20
66.242062
 30
0.0
 10
94.102979
 20
66.820848
 30
0.0
 10
94.162608
 20
67.971858
 30
0.0
 10
93.793863
 20
68.592159
 30
0.0
 10
93.607024
 20
68.906458
 30
0.0
 11
93.453853
 21
65.948833
 31
0.0
 11
94.008262
 21
66.876036
 31
0.0
 11
94.062711
 21
67.926667
 31
0.0
 11
93.607024
 21
68.906458
 31
0.0
  0
SPLINE
  5
11e
330
1F
100
AcDbEntity
  8
GEOMETRY
 62
1
100
AcDbSpline
 70
0
 71
3
 72
10
 73
6
 74
4
 40
0.0
 40
0.0
 40
0.0
 40
0.0
 40
1.228518
 40
2.416614
 40
3.6472
 40
3.6472
 40
3.6472
 40
3.6472
 10
88.608173
 20
64.539827
 30
0.0
 10
88.922216
 20
64.264096
 30
0.0
 10
89.539968
 20
63.721706
 30
0.0
 10
90.872841
 20
63.655482
 30
0.0
 10
91.542075
 20
64.134058
 30
0.0
 10
91.882571
 20
64.37755
 30
0.0
 11
88.608173
 21
64.539827
 31
0.0
 11
89.618889
 21
63.841466
 31
0.0
 11
90.805513
 21
63.782328
 31
0.0
 11
91.882571
 21
64.37755
 31
0.0
  0
SPLINE
  5
11f
330
1F
100
AcDbEntity
  8
GEOMETRY
 62
1
100
AcDbSpline
 70
0
 71
3
 72
10
 73
6
 74
4
 40
0.0
 40
0.0
 40
0.0
 40
0.0
 40
1.102778
 40
2.175242
 40
3.27777
 40
3.27777
 40
3.27777
 40
3.27777
 10
77.760252
 20
50.255165
 30
0.0
 10
77.982343
 20
50.555362
 30
0.0
 10
78.420422
 20
51.147503
 30
0.0
 10
78.463609
 20
52.325888
 30
0.0
 10
78.069885
 20
52.94833
 30
0.0
 10
77.870301
 20
53.263854
 30
0.0
 11
77.760252
 21
50.255165
 31
0.0
 11
78.3213
 21
51.204556
 31
0.0
 11
78.360517
 21
52.276303
 31
0.0
 11
77.870301
 21
53.263854
 31
0.0
  0
SPLINE
  5
120
330
1F
100
AcDbEntity
  8
GEOMETRY
 62
1
100
AcDbSpline
 70
0
 71
3
 72
10
 73
6
 74
4
 40
0.0
 40
0.0
 40
0.0
 40
0.0
 40
1.207907
 40
2.378307
 40
3.58501
 40
3.58501
 40
3.58501
 40
3.58501
 10
72.958487
 20
48.802244
 30
0.0
 10
73.27408
 20
48.539557
 30
0.0
 10
73.895467
 20
48.02234
 30
0.0
 10
75.202556
 20
47.977793
 30
0.0
 10
75.859007
 20
48.448352
 30
0.0
 10
76.192245
 20
48.687224
 30
0.0
 11
72.958487
 21
48.802244
 31
0.0
 11
73.968655
 21
48.139975
 31
0.0
 11
75.138353
 21
48.099478
 31
0.0
 11
76.192245
 21
48.687224
 31
0.0
  0
SPLINE
  5
121
330
1F
100
AcDbEntity
  8
GEOMETRY
 62
1
100
AcDbSpline
 70
0
 71
3
 72
10
 73
6
 74
4
 40
0.0
 40
0.0
 40
0.0
 40
0.0
 40
1.208114
 40
2.377653
 40
3.585657
 40
3.585657
 40
3.585657
 40
3.585657
 10
76.192881
 20
153.913565
 30
0.0
 10
75.859342
 20
154.153039
 30
0.0
 10
75.202913
 20
154.62434
 30
0.0
 10
73.895722
 20
154.577821
 30
0.0
 10
73.274466
 20
154.061103
 30
0.0
 10
72.958812
 20
153.798564
 30
0.0
 11
76.192881
 21
153.913565
 31
0.0
 11
75.137949
 21
154.502343
 31
0.0
 11
73.969151
 21
154.46075
 31
0.0
 11
72.958812
 21
153.798564
 31
0.0
  0
SPLINE
  5
122
330
1F
100
AcDbEntity
  8
GEOMETRY
 62
1
100
AcDbSpline
 70
0
 71
3
 72
10
 73
6
 74
4
 40
0.0
 40
0.0
 40
0.0
 40
0.0
 40
1.102443
 40
2.175012
 40
3.277685
 40
3.277685
 40
3.277685
 40
3.277685
 10
77.870226
 20
149.337223
 30
0.0
 10
78.069723
 20
149.65275
 30
0.0
 10
78.463309
 20
150.275253
 30
0.0
 10
78.420403
 20
151.453575
 30
0.0
 10
77.982437
 20
152.045808
 30
0.0
 10
77.760423
 20
152.346023
 30
0.0
 11
77.870226
 21
149.337223
 31
0.0
 11
78.360282
 21
150.324758
 31
0.0
 11
78.321238
 21
151.396616
 31
0.0
 11
77.760423
 21
152.346023
 31
0.0
  0
SPLINE
  5
123
330
1F
100
AcDbEntity
  8
GEOMETRY
 62
1
100
AcDbSpline
 70
0
 71
3
 72
10
 73
6
 74
4
 40
0.0
 40
0.0
 40
0.0
 40
0.0
 40
11.877632
 40
23.530601
 40
35.40847
 40
35.40847
 40
35.40847
 40
35.40847
 10
109.482713
 20
118.045082
 30
0.0
 10
107.608347
 20
114.513016
 30
0.0
 10
103.895067
 20
107.515693
 30
0.0
 10
103.895224
 20
95.085283
 30
0.0
 10
107.6084
 20
88.087846
 30
0.0
 10
109.482733
 20
84.555688
 30
0.0
 11
109.482713
 21
118.045082
 31
0.0
 11
104.805771
 21
107.127008
 31
0.0
 11
104.805831
 21
95.474038
 31
0.0
 11
109.482733
 21
84.555688
 31
0.0
  0
SPLINE
  5
124
330
1F
100
AcDbEntity
  8
GEOMETRY
 62
1
100
AcDbSpline
 70
0
 71
3
 72
10
 73
6
 74
4
 40
0.0
 40
0.0
 40
0.0
 40
0.0
 40
14.848333
 40
29.405736
 40
44.254126
 40
44.254126
 40
44.254126
 40
44.254126
 10
104.283911
 20
122.182242
 30
0.0
 10
101.898299
 20
117.787146
 30
0.0
 10
97.173818
 20
109.083069
 30
0.0
 10
97.173848
 20
93.51784
 30
0.0
 10
101.898091
 20
84.813641
 30
0.0
 10
104.283587
 20
80.418475
 30
0.0
 11
104.283911
 21
122.182242
 31
0.0
 11
98.331688
 21
108.579153
 31
0.0
 11
98.331645
 21
94.021749
 31
0.0
 11
104.283587
 21
80.418475
 31
0.0
  0
SPLINE
  5
125
330
1F
100
AcDbEntity
  8
GEOMETRY
 62
1
100
AcDbSpline
 70
0
 71
3
 72
10
 73
6
 74
4
 40
0.0
 40
0.0
 40
0.0
 40
0.0
 40
23.347167
 40
46.152102
 40
69.49897
 40
69.49897
 40
69.49897
 40
69.49897
 10
93.607024
 20
133.694411
 30
0.0
 10
89.509558
 20
126.960954
 30
0.0
 10
81.40979
 20
113.650423
 30
0.0
 10
81.409791
 20
88.950221
 30
0.0
 10
89.509576
 20
75.639811
 30
0.0
 10
93.607024
 20
68.906458
 30
0.0
 11
93.607024
 21
133.694411
 31
0.0
 11
83.387431
 21
112.702743
 31
0.0
 11
83.387461
 21
89.897808
 31
0.0
 11
93.607024
 21
68.906458
 31
0.0
  0
SPLINE
  5
126
330
1F
100
AcDbEntity
  8
GEOMETRY
 62
1
100
AcDbSpline
 70
0
 71
3
 72
10
 73
6
 74
4
 40
0.0
 40
0.0
 40
0.0
 40
0.0
 40
26.51917
 40
52.415916
 40
78.934834
 40
78.934834
 40
78.934834
 40
78.934834
 10
88.6082
 20
138.060486
 30
0.0
 10
83.928021
 20
130.426284
 30
0.0
 10
74.677512
 20
115.337061
 30
0.0
 10
74.677507
 20
87.263074
 30
0.0
 10
83.928017
 20
72.173945
 30
0.0
 10
88.608173
 20
64.539827
 30
0.0
 11
88.6082
 21
138.060486
 31
0.0
 11
76.935541
 21
114.2484
 31
0.0
 11
76.93556
 21
88.351654
 31
0.0
 11
88.608173
 21
64.539827
 31
0.0
  0
SPLINE
  5
127
330
1F
100
AcDbEntity
  8
GEOMETRY
 62
1
100
AcDbSpline
 70
0
 71
3
 72
10
 73
6
 74
4
 40
0.0
 40
0.0
 40
0.0
 40
0.0
 40
34.867982
 40
68.862335
 40
103.730554
 40
103.730554
 40
103.730554
 40
103.730554
 10
77.870226
 20
149.337223
 30
0.0
 10
71.500056
 20
139.419749
 30
0.0
 10
58.919322
 20
119.833287
 30
0.0
 10
58.919349
 20
82.76799
 30
0.0
 10
71.500078
 20
63.181439
 30
0.0
 10
77.870268
 20
53.263887
 30
0.0
 11
77.870226
 21
149.337223
 31
0.0
 11
61.985213
 21
118.297852
 31
0.0
 11
61.985208
 21
84.303499
 31
0.0
 11
77.870268
 21
53.263887
 31
0.0
  0
SPLINE
  5
128
330
1F
100
AcDbEntity
  8
GEOMETRY
 62
1
100
AcDbSpline
 70
0
 71
3
 72
10
 73
6
 74
4
 40
0.0
 40
0.0
 40
0.0
 40
0.0
 40
38.125571
 40
75.290991
 40
113.416729
 40
113.416729
 40
113.416729
 40
113.416729
 10
72.958812
 20
153.798564
 30
0.0
 10
65.974693
 20
142.965221
 30
0.0
 10
52.182342
 20
121.57136
 30
0.0
 10
52.182113
 20
81.029673
 30
0.0
 10
65.97439
 20
59.635679
 30
0.0
 10
72.958487
 20
48.802244
 30
0.0
 11
72.958812
 21
153.798564
 31
0.0
 11
55.543008
 21
119.883244
 31
0.0
 11
55.542823
 21
82.717824
 31
0.0
 11
72.958487
 21
48.802244
 31
0.0
  0
SPLINE
  5
129
330
1F
100
AcDbEntity
  8
GEOMETRY
 62
1
100
AcDbSpline
 70
0
 71
3
 72
10
 73
6
 74
4
 40
0.0
 40
0.0
 40
0.0
 40
0.0
 40
1.228588
 40
2.416964
 40
3.645783
 40
3.645783
 40
3.645783
 40
3.645783
 10
96.572998
 20
59.687123
 30
0.0
 10
96.330159
 20
59.347027
 30
0.0
 10
95.85243
 20
58.677968
 30
0.0
 10
95.918544
 20
57.345911
 30
0.0
 10
96.460013
 20
56.727237
 30
0.0
 10
96.735277
 20
56.412724
 30
0.0
 11
96.572998
 21
59.687123
 31
0.0
 11
95.979247
 21
58.611536
 31
0.0
 11
96.038091
 21
57.424617
 31
0.0
 11
96.735277
 21
56.412724
 31
0.0
  0
SPLINE
  5
12a
330
1F
100
AcDbEntity
  8
GEOMETRY
 62
1
100
AcDbSpline
 70
0
 71
3
 72
10
 73
6
 74
4
 40
0.0
 40
0.0
 40
0.0
 40
0.0
 40
1.081289
 40
2.132559
 40
3.211862
 40
3.211862
 40
3.211862
 40
3.211862
 10
101.101908
 20
61.411575
 30
0.0
 10
100.787061
 20
61.597733
 30
0.0
 10
100.166109
 20
61.964883
 30
0.0
 10
99.015757
 20
61.907056
 30
0.0
 10
98.437311
 20
61.47651
 30
0.0
 10
98.144282
 20
61.258404
 30
0.0
 11
101.101908
 21
61.411575
 31
0.0
 11
100.120646
 21
61.86579
 31
0.0
 11
99.07075
 21
61.812077
 31
0.0
 11
98.144282
 21
61.258404
 31
0.0
  0
SPLINE
  5
12b
330
1F
100
AcDbEntity
  8
GEOMETRY
 62
1
100
AcDbSpline
 70
0
 71
3
 72
10
 73
6
 74
4
 40
0.0
 40
0.0
 40
0.0
 40
0.0
 40
1.276815
 40
2.508804
 40
3.785598
 40
3.785598
 40
3.785598
 40
3.785598
 10
112.336799
 20
75.450908
 30
0.0
 10
112.086138
 20
75.095226
 30
0.0
 10
111.593615
 20
74.39635
 30
0.0
 10
111.708369
 20
73.006889
 30
0.0
 10
112.308504
 20
72.398008
 30
0.0
 10
112.613931
 20
72.088131
 30
0.0
 11
112.336799
 21
75.450908
 31
0.0
 11
111.732083
 21
74.326374
 31
0.0
 11
111.833394
 21
73.098558
 31
0.0
 11
112.613931
 21
72.088131
 31
0.0
  0
SPLINE
  5
12c
330
1F
100
AcDbEntity
  8
GEOMETRY
 62
1
100
AcDbSpline
 70
0
 71
3
 72
10
 73
6
 74
4
 40
0.0
 40
0.0
 40
0.0
 40
0.0
 40
1.026715
 40
2.028948
 40
3.056111
 40
3.056111
 40
3.056111
 40
3.056111
 10
116.751157
 20
77.287264
 30
0.0
 10
116.44206
 20
77.444678
 30
0.0
 10
115.831236
 20
77.755752
 30
0.0
 10
114.746365
 20
77.659359
 30
0.0
 10
114.199462
 20
77.245975
 30
0.0
 10
113.922651
 20
77.036744
 30
0.0
 11
116.751157
 21
77.287264
 31
0.0
 11
115.795846
 21
77.663462
 31
0.0
 11
114.797531
 21
77.574935
 31
0.0
 11
113.922651
 21
77.036744
 31
0.0
  0
SPLINE
  5
12d
330
1F
100
AcDbEntity
  8
GEOMETRY
 62
1
100
AcDbSpline
 70
0
 71
3
 72
10
 73
6
 74
4
 40
0.0
 40
0.0
 40
0.0
 40
0.0
 40
1.02682
 40
2.028785
 40
3.056024
 40
3.056024
 40
3.056024
 40
3.056024
 10
153.069065
 20
77.037381
 30
0.0
 10
152.792324
 20
77.246529
 30
0.0
 10
152.24554
 20
77.659764
 30
0.0
 10
151.160704
 20
77.7558
 30
0.0
 10
150.549805
 20
77.444721
 30
0.0
 10
150.240551
 20
77.287244
 30
0.0
 11
153.069065
 21
77.037381
 31
0.0
 11
152.194423
 21
77.575303
 31
0.0
 11
151.196357
 21
77.663614
 31
0.0
 11
150.240551
 21
77.287244
 31
0.0
  0
SPLINE
  5
12e
330
1F
100
AcDbEntity
  8
GEOMETRY
 62
1
100
AcDbSpline
 70
0
 71
3
 72
10
 73
6
 74
4
 40
0.0
 40
0.0
 40
0.0
 40
0.0
 40
1.276758
 40
2.508666
 40
3.78529
 40
3.78529
 40
3.78529
 40
3.78529
 10
154.379028
 20
72.089772
 30
0.0
 10
154.684554
 20
72.399557
 30
0.0
 10
155.284874
 20
73.008245
 30
0.0
 10
155.399627
 20
74.397597
 30
0.0
 10
154.907388
 20
75.096521
 30
0.0
 10
154.656882
 20
75.452212
 30
0.0
 11
154.379028
 21
72.089772
 31
0.0
 11
155.159811
 21
73.099965
 31
0.0
 11
155.261219
 21
74.327692
 31
0.0
 11
154.656882
 21
75.452212
 31
0.0
  0
SPLINE
  5
12f
330
1F
100
AcDbEntity
  8
GEOMETRY
 62
1
100
AcDbSpline
 70
0
 71
3
 72
10
 73
6
 74
4
 40
0.0
 40
0.0
 40
0.0
 40
0.0
 40
1.080261
 40
2.131565
 40
3.21404
 40
3.21404
 40
3.21404
 40
3.21404
 10
168.847519
 20
61.258927
 30
0.0
 10
168.5545
 20
61.477451
 30
0.0
 10
167.976318
 20
61.908641
 30
0.0
 10
166.824746
 20
61.969145
 30
0.0
 10
166.204518
 20
61.599224
 30
0.0
 10
165.889874
 20
61.411561
 30
0.0
 11
168.847519
 21
61.258927
 31
0.0
 11
167.920808
 21
61.814059
 31
0.0
 11
166.870942
 21
61.869009
 31
0.0
 11
165.889874
 21
61.411561
 31
0.0
  0
SPLINE
  5
130
330
1F
100
AcDbEntity
  8
GEOMETRY
 62
1
100
AcDbSpline
 70
0
 71
3
 72
10
 73
6
 74
4
 40
0.0
 40
0.0
 40
0.0
 40
0.0
 40
1.229104
 40
2.417554
 40
3.646465
 40
3.646465
 40
3.646465
 40
3.646465
 10
170.254625
 20
56.411413
 30
0.0
 10
170.530158
 20
56.725847
 30
0.0
 10
171.07211
 20
57.344313
 30
0.0
 10
171.138383
 20
58.67669
 30
0.0
 10
170.660609
 20
59.34588
 30
0.0
 10
170.417723
 20
59.686076
 30
0.0
 11
170.254625
 21
56.411413
 31
0.0
 11
170.952498
 21
57.423179
 31
0.0
 11
171.01155
 21
58.610161
 31
0.0
 11
170.417723
 21
59.686076
 31
0.0
  0
SPLINE
  5
131
330
1F
100
AcDbEntity
  8
GEOMETRY
 62
1
100
AcDbSpline
 70
0
 71
3
 72
10
 73
6
 74
4
 40
0.0
 40
0.0
 40
0.0
 40
0.0
 40
1.102875
 40
2.176006
 40
3.276877
 40
3.276877
 40
3.276877
 40
3.276877
 10
184.538189
 20
45.561639
 30
0.0
 10
184.237743
 20
45.783465
 30
0.0
 10
183.644955
 20
46.221136
 30
0.0
 10
182.467036
 20
46.263181
 30
0.0
 10
181.844584
 20
45.87036
 30
0.0
 10
181.529387
 20
45.671443
 30
0.0
 11
184.538189
 21
45.561639
 31
0.0
 11
183.588197
 21
46.121861
 31
0.0
 11
182.515755
 21
46.160313
 31
0.0
 11
181.529387
 21
45.671443
 31
0.0
  0
SPLINE
  5
132
330
1F
100
AcDbEntity
  8
GEOMETRY
 62
1
100
AcDbSpline
 70
0
 71
3
 72
10
 73
6
 74
4
 40
0.0
 40
0.0
 40
0.0
 40
0.0
 40
1.208038
 40
2.377532
 40
3.585562
 40
3.585562
 40
3.585562
 40
3.585562
 10
185.990732
 20
40.760026
 30
0.0
 10
186.253218
 20
41.075725
 30
0.0
 10
186.769814
 20
41.69705
 30
0.0
 10
186.816456
 20
43.00417
 30
0.0
 10
186.345182
 20
43.660578
 30
0.0
 10
186.105726
 20
43.994102
 30
0.0
 11
185.990732
 21
40.760026
 31
0.0
 11
186.652803
 21
41.770479
 31
0.0
 11
186.694442
 21
42.939232
 31
0.0
 11
186.105726
 21
43.994102
 31
0.0
  0
SPLINE
  5
133
330
1F
100
AcDbEntity
  8
GEOMETRY
 62
1
100
AcDbSpline
 70
0
 71
3
 72
10
 73
6
 74
4
 40
0.0
 40
0.0
 40
0.0
 40
0.0
 40
1.208104
 40
2.377372
 40
3.585324
 40
3.585324
 40
3.585324
 40
3.585324
 10
80.879379
 20
43.993472
 30
0.0
 10
80.639889
 20
43.659936
 30
0.0
 10
80.16861
 20
43.003586
 30
0.0
 10
80.215289
 20
41.696544
 30
0.0
 10
80.731897
 20
41.075356
 30
0.0
 10
80.994404
 20
40.759708
 30
0.0
 11
80.879379
 21
43.993472
 31
0.0
 11
80.290605
 21
42.938549
 31
0.0
 11
80.332281
 21
41.770025
 31
0.0
 11
80.994404
 21
40.759708
 31
0.0
  0
SPLINE
  5
134
330
1F
100
AcDbEntity
  8
GEOMETRY
 62
1
100
AcDbSpline
 70
0
 71
3
 72
10
 73
6
 74
4
 40
0.0
 40
0.0
 40
0.0
 40
0.0
 40
1.103861
 40
2.174802
 40
3.275566
 40
3.275566
 40
3.275566
 40
3.275566
 10
85.456013
 20
45.671523
 30
0.0
 10
85.139386
 20
45.869739
 30
0.0
 10
84.515575
 20
46.26026
 30
0.0
 10
83.338604
 20
46.220698
 30
0.0
 10
82.747126
 20
45.783216
 30
0.0
 10
82.447326
 20
45.561472
 30
0.0
 11
85.456013
 21
45.671523
 31
0.0
 11
84.465521
 21
46.158796
 31
0.0
 11
83.395246
 21
46.12105
 31
0.0
 11
82.447326
 21
45.561472
 31
0.0
  0
SPLINE
  5
135
330
1F
100
AcDbEntity
  8
GEOMETRY
 62
1
100
AcDbSpline
 70
0
 71
3
 72
10
 73
6
 74
4
 40
0.0
 40
0.0
 40
0.0
 40
0.0
 40
11.877868
 40
23.530837
 40
35.408469
 40
35.408469
 40
35.408469
 40
35.408469
 10
116.747822
 20
77.283981
 30
0.0
 10
120.279979
 20
75.409648
 30
0.0
 10
127.277416
 20
71.696472
 30
0.0
 10
139.707825
 20
71.696316
 30
0.0
 10
146.705149
 20
75.409595
 30
0.0
 10
150.237215
 20
77.283961
 30
0.0
 11
116.747822
 21
77.283981
 31
0.0
 11
127.666171
 21
72.60708
 31
0.0
 11
139.31914
 21
72.60702
 31
0.0
 11
150.237215
 21
77.283961
 31
0.0
  0
SPLINE
  5
136
330
1F
100
AcDbEntity
  8
GEOMETRY
 62
1
100
AcDbSpline
 70
0
 71
3
 72
10
 73
6
 74
4
 40
0.0
 40
0.0
 40
0.0
 40
0.0
 40
14.848389
 40
29.405794
 40
44.254126
 40
44.254126
 40
44.254126
 40
44.254126
 10
112.610602
 20
72.084841
 30
0.0
 10
117.005767
 20
69.699346
 30
0.0
 10
125.709967
 20
64.975104
 30
0.0
 10
141.275196
 20
64.975071
 30
0.0
 10
149.979273
 20
69.699554
 30
0.0
 10
154.374369
 20
72.085166
 30
0.0
 11
112.610602
 21
72.084841
 31
0.0
 11
126.213875
 21
66.1329
 31
0.0
 11
140.771281
 21
66.132942
 31
0.0
 11
154.374369
 21
72.085166
 31
0.0
  0
SPLINE
  5
137
330
1F
100
AcDbEntity
  8
GEOMETRY
 62
1
100
AcDbSpline
 70
0
 71
3
 72
10
 73
6
 74
4
 40
0.0
 40
0.0
 40
0.0
 40
0.0
 40
23.346869
 40
46.151803
 40
69.49897
 40
69.49897
 40
69.49897
 40
69.49897
 10
101.098585
 20
61.408278
 30
0.0
 10
107.831938
 20
57.31083
 30
0.0
 10
121.142348
 20
49.211045
 30
0.0
 10
145.842549
 20
49.211046
 30
0.0
 10
159.153081
 20
57.310813
 30
0.0
 10
165.886538
 20
61.408278
 30
0.0
 11
101.098585
 21
61.408278
 31
0.0
 11
122.089935
 21
51.188715
 31
0.0
 11
144.89487
 21
51.188686
 31
0.0
 11
165.886538
 21
61.408278
 31
0.0
  0
SPLINE
  5
138
330
1F
100
AcDbEntity
  8
GEOMETRY
 62
1
100
AcDbSpline
 70
0
 71
3
 72
10
 73
6
 74
4
 40
0.0
 40
0.0
 40
0.0
 40
0.0
 40
26.518917
 40
52.415663
 40
78.934833
 40
78.934833
 40
78.934833
 40
78.934833
 10
96.731954
 20
56.409428
 30
0.0
 10
104.366072
 20
51.729271
 30
0.0
 10
119.4552
 20
42.478762
 30
0.0
 10
147.529186
 20
42.478768
 30
0.0
 10
162.61841
 20
51.729276
 30
0.0
 10
170.252613
 20
56.409454
 30
0.0
 11
96.731954
 21
56.409428
 31
0.0
 11
120.543781
 21
44.736815
 31
0.0
 11
146.440526
 21
44.736797
 31
0.0
 11
170.252613
 21
56.409454
 31
0.0
  0
SPLINE
  5
139
330
1F
100
AcDbEntity
  8
GEOMETRY
 62
1
100
AcDbSpline
 70
0
 71
3
 72
10
 73
6
 74
4
 40
0.0
 40
0.0
 40
0.0
 40
0.0
 40
34.868223
 40
68.862581
 40
103.730565
 40
103.730565
 40
103.730565
 40
103.730565
 10
85.456013
 20
45.671523
 30
0.0
 10
95.373567
 20
39.301332
 30
0.0
 10
114.96012
 20
26.7206
 30
0.0
 10
152.025421
 20
26.720567
 30
0.0
 10
171.611886
 20
39.3013
 30
0.0
 10
181.529361
 20
45.67147
 30
0.0
 11
85.456013
 21
45.671523
 31
0.0
 11
116.49563
 21
29.786459
 31
0.0
 11
150.489987
 21
29.786459
 31
0.0
 11
181.529361
 21
45.67147
 31
0.0
  0
SPLINE
  5
13a
330
1F
100
AcDbEntity
  8
GEOMETRY
 62
1
100
AcDbSpline
 70
0
 71
3
 72
10
 73
6
 74
4
 40
0.0
 40
0.0
 40
0.0
 40
0.0
 40
38.125741
 40
75.291164
 40
113.416737
 40
113.416737
 40
113.416737
 40
113.416737
 10
80.994377
 20
40.759735
 30
0.0
 10
91.827813
 20
33.775637
 30
0.0
 10
113.221808
 20
19.983358
 30
0.0
 10
153.763498
 20
19.983583
 30
0.0
 10
175.157361
 20
33.775934
 30
0.0
 10
185.990705
 20
40.760052
 30
0.0
 11
80.994377
 21
40.759735
 31
0.0
 11
114.90996
 21
23.344069
 31
0.0
 11
152.075383
 21
23.34425
 31
0.0
 11
185.990705
 21
40.760052
 31
0.0
  0
SPLINE
  5
13b
330
1F
100
AcDbEntity
  8
GEOMETRY
 62
1
100
AcDbSpline
 70
0
 71
3
 72
10
 73
6
 74
4
 40
0.0
 40
0.0
 40
0.0
 40
0.0
 40
1.228591
 40
2.416838
 40
3.645359
 40
3.645359
 40
3.645359
 40
3.645359
 10
175.105732
 20
64.374138
 30
0.0
 10
175.445856
 20
64.131347
 30
0.0
 10
176.114934
 20
63.653739
 30
0.0
 10
177.44684
 20
63.719852
 30
0.0
 10
178.065333
 20
64.261326
 30
0.0
 10
178.379733
 20
64.536574
 30
0.0
 11
175.105732
 21
64.374138
 31
0.0
 11
176.181394
 21
63.780515
 31
0.0
 11
177.36818
 21
63.83942
 31
0.0
 11
178.379733
 21
64.536574
 31
0.0
  0
SPLINE
  5
13c
330
1F
100
AcDbEntity
  8
GEOMETRY
 62
1
100
AcDbSpline
 70
0
 71
3
 72
10
 73
6
 74
4
 40
0.0
 40
0.0
 40
0.0
 40
0.0
 40
1.080519
 40
2.132521
 40
3.21304
 40
3.21304
 40
3.21304
 40
3.21304
 10
173.379585
 20
68.901326
 30
0.0
 10
173.192643
 20
68.587104
 30
0.0
 10
172.823692
 20
67.966954
 30
0.0
 10
172.883096
 20
66.815865
 30
0.0
 10
173.313924
 20
66.236989
 30
0.0
 10
173.532219
 20
65.94368
 30
0.0
 11
173.379585
 21
68.901326
 31
0.0
 11
172.923602
 21
67.921734
 31
0.0
 11
172.97782
 21
66.871129
 31
0.0
 11
173.532219
 21
65.94368
 31
0.0
  0
SPLINE
  5
13d
330
1F
100
AcDbEntity
  8
GEOMETRY
 62
1
100
AcDbSpline
 70
0
 71
3
 72
10
 73
6
 74
4
 40
0.0
 40
0.0
 40
0.0
 40
0.0
 40
1.27662
 40
2.50853
 40
3.785288
 40
3.785288
 40
3.785288
 40
3.785288
 10
159.339596
 20
80.134979
 30
0.0
 10
159.695286
 20
79.884474
 30
0.0
 10
160.39421
 20
79.392238
 30
0.0
 10
161.783561
 20
79.506988
 30
0.0
 10
162.39225
 20
80.107307
 30
0.0
 10
162.702036
 20
80.412833
 30
0.0
 11
159.339596
 21
80.134979
 31
0.0
 11
160.464113
 21
79.530644
 31
0.0
 11
161.691842
 21
79.632051
 31
0.0
 11
162.702036
 21
80.412833
 31
0.0
  0
SPLINE
  5
13e
330
1F
100
AcDbEntity
  8
GEOMETRY
 62
1
100
AcDbSpline
 70
0
 71
3
 72
10
 73
6
 74
4
 40
0.0
 40
0.0
 40
0.0
 40
0.0
 40
1.026852
 40
2.028956
 40
3.05583
 40
3.05583
 40
3.05583
 40
3.05583
 10
157.504564
 20
84.55131
 30
0.0
 10
157.347229
 20
84.242146
 30
0.0
 10
157.036351
 20
83.631268
 30
0.0
 10
157.132157
 20
82.546519
 30
0.0
 10
157.545322
 20
81.999596
 30
0.0
 10
157.754427
 20
81.722796
 30
0.0
 11
157.504564
 21
84.55131
 31
0.0
 11
157.12848
 21
83.595807
 31
0.0
 11
157.216648
 21
82.59759
 31
0.0
 11
157.754427
 21
81.722796
 31
0.0
  0
SPLINE
  5
13f
330
1F
100
AcDbEntity
  8
GEOMETRY
 62
1
100
AcDbSpline
 70
0
 71
3
 72
10
 73
6
 74
4
 40
0.0
 40
0.0
 40
0.0
 40
0.0
 40
1.026384
 40
2.028251
 40
3.054895
 40
3.054895
 40
3.054895
 40
3.054895
 10
157.754402
 20
120.868548
 30
0.0
 10
157.545463
 20
120.591839
 30
0.0
 10
157.132576
 20
120.045031
 30
0.0
 10
157.036713
 20
118.96068
 30
0.0
 10
157.347336
 20
118.349849
 30
0.0
 10
157.504544
 20
118.040704
 30
0.0
 11
157.754402
 21
120.868548
 31
0.0
 11
157.217019
 21
119.994086
 31
0.0
 11
157.128788
 21
118.996112
 31
0.0
 11
157.504544
 21
118.040704
 31
0.0
  0
SPLINE
  5
140
330
1F
100
AcDbEntity
  8
GEOMETRY
 62
1
100
AcDbSpline
 70
0
 71
3
 72
10
 73
6
 74
4
 40
0.0
 40
0.0
 40
0.0
 40
0.0
 40
1.276416
 40
2.508214
 40
3.785094
 40
3.785094
 40
3.785094
 40
3.785094
 10
162.703015
 20
122.177268
 30
0.0
 10
162.393382
 20
122.482798
 30
0.0
 10
161.784938
 20
123.083178
 30
0.0
 10
160.395613
 20
123.197894
 30
0.0
 10
159.696658
 20
122.705622
 30
0.0
 10
159.3409
 20
122.455062
 30
0.0
 11
162.703015
 21
122.177268
 31
0.0
 11
161.693263
 21
122.958062
 31
0.0
 11
160.46565
 21
123.059512
 31
0.0
 11
159.3409
 21
122.455062
 31
0.0
  0
SPLINE
  5
141
330
1F
100
AcDbEntity
  8
GEOMETRY
 62
1
100
AcDbSpline
 70
0
 71
3
 72
10
 73
6
 74
4
 40
0.0
 40
0.0
 40
0.0
 40
0.0
 40
1.080149
 40
2.131841
 40
3.212076
 40
3.212076
 40
3.212076
 40
3.212076
 10
173.532742
 20
136.646917
 30
0.0
 10
173.314588
 20
136.353661
 30
0.0
 10
172.884029
 20
135.774875
 30
0.0
 10
172.824748
 20
134.624191
 30
0.0
 10
173.193426
 20
134.004133
 30
0.0
 10
173.380233
 20
133.689953
 30
0.0
 11
173.532742
 21
136.646917
 31
0.0
 11
172.978714
 21
135.719677
 31
0.0
 11
172.924568
 21
134.66938
 31
0.0
 11
173.380233
 21
133.689953
 31
0.0
  0
SPLINE
  5
142
330
1F
100
AcDbEntity
  8
GEOMETRY
 62
1
100
AcDbSpline
 70
0
 71
3
 72
10
 73
6
 74
4
 40
0.0
 40
0.0
 40
0.0
 40
0.0
 40
1.228228
 40
2.416133
 40
3.646177
 40
3.646177
 40
3.646177
 40
3.646177
 10
178.378422
 20
138.055922
 30
0.0
 10
178.064443
 20
138.331571
 30
0.0
 10
177.446793
 20
138.873818
 30
0.0
 10
176.114375
 20
138.940166
 30
0.0
 10
175.445136
 20
138.462075
 30
0.0
 10
175.104685
 20
138.218863
 30
0.0
 11
178.378422
 21
138.055922
 31
0.0
 11
177.367935
 21
138.754105
 31
0.0
 11
176.18151
 21
138.813387
 31
0.0
 11
175.104685
 21
138.218863
 31
0.0
  0
SPLINE
  5
143
330
1F
100
AcDbEntity
  8
GEOMETRY
 62
1
100
AcDbSpline
 70
0
 71
3
 72
10
 73
6
 74
4
 40
0.0
 40
0.0
 40
0.0
 40
0.0
 40
1.102778
 40
2.175242
 40
3.277772
 40
3.277772
 40
3.277772
 40
3.277772
 10
189.227064
 20
152.341189
 30
0.0
 10
189.004972
 20
152.040992
 30
0.0
 10
188.566893
 20
151.44885
 30
0.0
 10
188.523707
 20
150.270465
 30
0.0
 10
188.917432
 20
149.648022
 30
0.0
 10
189.117016
 20
149.332498
 30
0.0
 11
189.227064
 21
152.341189
 31
0.0
 11
188.666016
 21
151.391797
 31
0.0
 11
188.626799
 21
150.32005
 31
0.0
 11
189.117016
 21
149.332498
 31
0.0
  0
SPLINE
  5
144
330
1F
100
AcDbEntity
  8
GEOMETRY
 62
1
100
AcDbSpline
 70
0
 71
3
 72
10
 73
6
 74
4
 40
0.0
 40
0.0
 40
0.0
 40
0.0
 40
1.207489
 40
2.376475
 40
3.587181
 40
3.587181
 40
3.587181
 40
3.587181
 10
194.028168
 20
153.793446
 30
0.0
 10
193.713161
 20
154.056607
 30
0.0
 10
193.093192
 20
154.574537
 30
0.0
 10
191.785057
 20
154.621149
 30
0.0
 10
191.128457
 20
154.148794
 30
0.0
 10
190.794401
 20
153.908475
 30
0.0
 11
194.028168
 21
153.793446
 31
0.0
 11
193.019468
 21
154.457188
 31
0.0
 11
191.851236
 21
154.49916
 31
0.0
 11
190.794401
 21
153.908475
 31
0.0
  0
SPLINE
  5
145
330
1F
100
AcDbEntity
  8
GEOMETRY
 62
1
100
AcDbSpline
 70
0
 71
3
 72
10
 73
6
 74
4
 40
0.0
 40
0.0
 40
0.0
 40
0.0
 40
1.20812
 40
2.377661
 40
3.585666
 40
3.585666
 40
3.585666
 40
3.585666
 10
190.794436
 20
48.682786
 30
0.0
 10
191.127977
 20
48.443311
 30
0.0
 10
191.784408
 20
47.972007
 30
0.0
 10
193.091602
 20
48.018523
 30
0.0
 10
193.712859
 20
48.535241
 30
0.0
 10
194.028513
 20
48.79778
 30
0.0
 11
190.794436
 21
48.682786
 31
0.0
 11
191.849372
 21
48.094004
 31
0.0
 11
193.018174
 21
48.135594
 31
0.0
 11
194.028513
 21
48.79778
 31
0.0
  0
SPLINE
  5
146
330
1F
100
AcDbEntity
  8
GEOMETRY
 62
1
100
AcDbSpline
 70
0
 71
3
 72
10
 73
6
 74
4
 40
0.0
 40
0.0
 40
0.0
 40
0.0
 40
1.102417
 40
2.175016
 40
3.27773
 40
3.27773
 40
3.27773
 40
3.27773
 10
189.117095
 20
53.259125
 30
0.0
 10
188.917572
 20
52.94362
 30
0.0
 10
188.523921
 20
52.321143
 30
0.0
 10
188.566901
 20
51.142793
 30
0.0
 10
189.004879
 20
50.550546
 30
0.0
 10
189.2269
 20
50.250323
 30
0.0
 11
189.117095
 21
53.259125
 31
0.0
 11
188.626981
 21
52.271648
 31
0.0
 11
188.666055
 21
51.19976
 31
0.0
 11
189.2269
 21
50.250323
 31
0.0
  0
SPLINE
  5
147
330
1F
100
AcDbEntity
  8
GEOMETRY
 62
1
100
AcDbSpline
 70
0
 71
3
 72
10
 73
6
 74
4
 40
0.0
 40
0.0
 40
0.0
 40
0.0
 40
11.877632
 40
23.530601
 40
35.408469
 40
35.408469
 40
35.408469
 40
35.408469
 10
157.504604
 20
84.55127
 30
0.0
 10
159.37897
 20
88.083336
 30
0.0
 10
163.092248
 20
95.08066
 30
0.0
 10
163.092093
 20
107.511069
 30
0.0
 10
159.378917
 20
114.508506
 30
0.0
 10
157.504584
 20
118.040664
 30
0.0
 11
157.504604
 21
84.55127
 31
0.0
 11
162.181544
 21
95.469346
 31
0.0
 11
162.181485
 21
107.122315
 31
0.0
 11
157.504584
 21
118.040664
 31
0.0
  0
SPLINE
  5
148
330
1F
100
AcDbEntity
  8
GEOMETRY
 62
1
100
AcDbSpline
 70
0
 71
3
 72
10
 73
6
 74
4
 40
0.0
 40
0.0
 40
0.0
 40
0.0
 40
14.847801
 40
29.405021
 40
44.253206
 40
44.253206
 40
44.253206
 40
44.253206
 10
162.703399
 20
80.414117
 30
0.0
 10
165.088766
 20
84.809133
 30
0.0
 10
169.812818
 20
93.513153
 30
0.0
 10
169.812623
 20
109.078
 30
0.0
 10
165.088497
 20
117.782106
 30
0.0
 10
162.703062
 20
122.177222
 30
0.0
 11
162.703399
 21
80.414117
 31
0.0
 11
168.654998
 21
94.016898
 31
0.0
 11
168.654881
 21
108.574118
 31
0.0
 11
162.703062
 21
122.177222
 31
0.0
  0
SPLINE
  5
149
330
1F
100
AcDbEntity
  8
GEOMETRY
 62
1
100
AcDbSpline
 70
0
 71
3
 72
10
 73
6
 74
4
 40
0.0
 40
0.0
 40
0.0
 40
0.0
 40
23.347167
 40
46.152101
 40
69.49897
 40
69.49897
 40
69.49897
 40
69.49897
 10
173.380286
 20
68.901948
 30
0.0
 10
177.477752
 20
75.635405
 30
0.0
 10
185.577519
 20
88.945936
 30
0.0
 10
185.57752
 20
113.646137
 30
0.0
 10
177.477735
 20
126.956547
 30
0.0
 10
173.380286
 20
133.6899
 30
0.0
 11
173.380286
 21
68.901948
 31
0.0
 11
183.599879
 21
89.893616
 31
0.0
 11
183.59985
 21
112.69855
 31
0.0
 11
173.380286
 21
133.6899
 31
0.0
  0
SPLINE
  5
14a
330
1F
100
AcDbEntity
  8
GEOMETRY
 62
1
100
AcDbSpline
 70
0
 71
3
 72
10
 73
6
 74
4
 40
0.0
 40
0.0
 40
0.0
 40
0.0
 40
26.519171
 40
52.415916
 40
78.934833
 40
78.934833
 40
78.934833
 40
78.934833
 10
178.378449
 20
64.535211
 30
0.0
 10
183.058627
 20
72.169413
 30
0.0
 10
192.309135
 20
87.258637
 30
0.0
 10
192.309141
 20
115.332623
 30
0.0
 10
183.058631
 20
130.421752
 30
0.0
 10
178.378475
 20
138.055869
 30
0.0
 11
178.378449
 21
64.535211
 31
0.0
 11
190.051106
 21
88.347298
 31
0.0
 11
190.051088
 21
114.244043
 31
0.0
 11
178.378475
 21
138.055869
 31
0.0
  0
SPLINE
  5
14b
330
1F
100
AcDbEntity
  8
GEOMETRY
 62
1
100
AcDbSpline
 70
0
 71
3
 72
10
 73
6
 74
4
 40
0.0
 40
0.0
 40
0.0
 40
0.0
 40
34.867984
 40
68.862341
 40
103.730565
 40
103.730565
 40
103.730565
 40
103.730565
 10
189.117095
 20
53.259125
 30
0.0
 10
195.487265
 20
63.1766
 30
0.0
 10
208.067998
 20
82.763065
 30
0.0
 10
208.067965
 20
119.828366
 30
0.0
 10
195.487233
 20
139.414919
 30
0.0
 10
189.117042
 20
149.332472
 30
0.0
 11
189.117095
 21
53.259125
 31
0.0
 11
205.002106
 21
84.298498
 31
0.0
 11
205.002106
 21
118.292856
 31
0.0
 11
189.117042
 21
149.332472
 31
0.0
  0
SPLINE
  5
14c
330
1F
100
AcDbEntity
  8
GEOMETRY
 62
1
100
AcDbSpline
 70
0
 71
3
 72
10
 73
6
 74
4
 40
0.0
 40
0.0
 40
0.0
 40
0.0
 40
38.125425
 40
75.29051
 40
113.415943
 40
113.415943
 40
113.415943
 40
113.415943
 10
194.028513
 20
48.79778
 30
0.0
 10
201.012513
 20
59.631144
 30
0.0
 10
214.804594
 20
81.024991
 30
0.0
 10
214.804466
 20
121.566365
 30
0.0
 10
201.012242
 20
142.960125
 30
0.0
 10
194.028168
 20
153.793446
 30
0.0
 11
194.028513
 21
48.79778
 31
0.0
 11
211.443951
 21
82.713123
 31
0.0
 11
211.443832
 21
119.878209
 31
0.0
 11
194.028168
 21
153.793446
 31
0.0
  0
SPLINE
  5
14d
330
1F
100
AcDbEntity
  8
GEOMETRY
 62
1
100
AcDbSpline
 70
0
 71
3
 72
10
 73
6
 74
4
 40
0.0
 40
0.0
 40
0.0
 40
0.0
 40
1.228446
 40
2.41649
 40
3.644979
 40
3.644979
 40
3.644979
 40
3.644979
 10
170.41431
 20
142.909239
 30
0.0
 10
170.657014
 20
143.249371
 30
0.0
 10
171.13444
 20
143.918449
 30
0.0
 10
171.067994
 20
145.250155
 30
0.0
 10
170.526599
 20
145.868584
 30
0.0
 10
170.25137
 20
146.182974
 30
0.0
 11
170.41431
 21
142.909239
 31
0.0
 11
171.007657
 21
143.984886
 31
0.0
 11
170.948523
 21
145.171458
 31
0.0
 11
170.25137
 21
146.182974
 31
0.0
  0
SPLINE
  5
14e
330
1F
100
AcDbEntity
  8
GEOMETRY
 62
1
100
AcDbSpline
 70
0
 71
3
 72
10
 73
6
 74
4
 40
0.0
 40
0.0
 40
0.0
 40
0.0
 40
1.080958
 40
2.131875
 40
3.211014
 40
3.211014
 40
3.211014
 40
3.211014
 10
165.885401
 20
141.184786
 30
0.0
 10
166.200129
 20
140.998656
 30
0.0
 10
166.820839
 20
140.63157
 30
0.0
 10
167.970867
 20
140.689052
 30
0.0
 10
168.549311
 20
141.119313
 30
0.0
 10
168.842365
 20
141.337294
 30
0.0
 11
165.885401
 21
141.184786
 31
0.0
 11
166.866305
 21
140.730585
 31
0.0
 11
167.915863
 21
140.783998
 31
0.0
 11
168.842365
 21
141.337294
 31
0.0
  0
SPLINE
  5
14f
330
1F
100
AcDbEntity
  8
GEOMETRY
 62
1
100
AcDbSpline
 70
0
 71
3
 72
10
 73
6
 74
4
 40
0.0
 40
0.0
 40
0.0
 40
0.0
 40
1.276283
 40
2.50808
 40
3.784576
 40
3.784576
 40
3.784576
 40
3.784576
 10
154.65051
 20
127.145452
 30
0.0
 10
154.900886
 20
127.501092
 30
0.0
 10
155.392911
 20
128.199977
 30
0.0
 10
155.278054
 20
129.588977
 30
0.0
 10
154.678059
 20
130.197754
 30
0.0
 10
154.372716
 20
130.507567
 30
0.0
 11
154.65051
 21
127.145452
 31
0.0
 11
155.254519
 21
128.269761
 31
0.0
 11
155.153068
 21
129.497374
 31
0.0
 11
154.372716
 21
130.507567
 31
0.0
  0
SPLINE
  5
150
330
1F
100
AcDbEntity
  8
GEOMETRY
 62
1
100
AcDbSpline
 70
0
 71
3
 72
10
 73
6
 74
4
 40
0.0
 40
0.0
 40
0.0
 40
0.0
 40
1.026461
 40
2.028491
 40
3.055079
 40
3.055079
 40
3.055079
 40
3.055079
 10
150.236151
 20
125.309096
 30
0.0
 10
150.545187
 20
125.151759
 30
0.0
 10
151.155901
 20
124.84083
 30
0.0
 10
152.240355
 20
124.937042
 30
0.0
 10
152.787239
 20
125.349987
 30
0.0
 10
153.063991
 20
125.558959
 30
0.0
 11
150.236151
 21
125.309096
 31
0.0
 11
151.191253
 21
124.933059
 31
0.0
 11
152.189377
 21
125.021433
 31
0.0
 11
153.063991
 21
125.558959
 31
0.0
  0
SPLINE
  5
151
330
1F
100
AcDbEntity
  8
GEOMETRY
 62
1
100
AcDbSpline
 70
0
 71
3
 72
10
 73
6
 74
4
 40
0.0
 40
0.0
 40
0.0
 40
0.0
 40
1.026823
 40
2.02879
 40
3.05603
 40
3.05603
 40
3.05603
 40
3.05603
 10
113.918237
 20
125.558986
 30
0.0
 10
114.194979
 20
125.349837
 30
0.0
 10
114.741764
 20
124.936601
 30
0.0
 10
115.826602
 20
124.840562
 30
0.0
 10
116.437503
 20
125.15164
 30
0.0
 10
116.746758
 20
125.309116
 30
0.0
 11
113.918237
 21
125.558986
 31
0.0
 11
114.792882
 21
125.021062
 31
0.0
 11
115.79095
 21
124.932749
 31
0.0
 11
116.746758
 21
125.309116
 31
0.0
  0
SPLINE
  5
152
330
1F
100
AcDbEntity
  8
GEOMETRY
 62
1
100
AcDbSpline
 70
0
 71
3
 72
10
 73
6
 74
4
 40
0.0
 40
0.0
 40
0.0
 40
0.0
 40
1.276758
 40
2.508669
 40
3.785296
 40
3.785296
 40
3.785296
 40
3.785296
 10
112.608274
 20
130.506594
 30
0.0
 10
112.302748
 20
130.196809
 30
0.0
 10
111.702429
 20
129.588119
 30
0.0
 10
111.587681
 20
128.198765
 30
0.0
 10
112.07992
 20
127.49984
 30
0.0
 10
112.330427
 20
127.144148
 30
0.0
 11
112.608274
 21
130.506594
 31
0.0
 11
111.827493
 21
129.4964
 31
0.0
 11
111.726088
 21
128.26867
 31
0.0
 11
112.330427
 21
127.144148
 31
0.0
  0
SPLINE
  5
153
330
1F
100
AcDbEntity
  8
GEOMETRY
 62
1
100
AcDbSpline
 70
0
 71
3
 72
10
 73
6
 74
4
 40
0.0
 40
0.0
 40
0.0
 40
0.0
 40
1.080262
 40
2.131565
 40
3.214041
 40
3.214041
 40
3.214041
 40
3.214041
 10
98.139121
 20
141.336778
 30
0.0
 10
98.43214
 20
141.118253
 30
0.0
 10
99.010323
 20
140.687063
 30
0.0
 10
100.161895
 20
140.62656
 30
0.0
 10
100.782122
 20
140.996481
 30
0.0
 10
101.096767
 20
141.184144
 30
0.0
 11
98.139121
 21
141.336778
 31
0.0
 11
99.065833
 21
140.781645
 31
0.0
 11
100.115699
 21
140.726695
 31
0.0
 11
101.096767
 21
141.184144
 31
0.0
  0
SPLINE
  5
154
330
1F
100
AcDbEntity
  8
GEOMETRY
 62
1
100
AcDbSpline
 70
0
 71
3
 72
10
 73
6
 74
4
 40
0.0
 40
0.0
 40
0.0
 40
0.0
 40
1.228521
 40
2.416771
 40
3.645364
 40
3.645364
 40
3.645364
 40
3.645364
 10
96.732016
 20
146.184291
 30
0.0
 10
96.456767
 20
145.869891
 30
0.0
 10
95.915294
 20
145.251396
 30
0.0
 10
95.849185
 20
143.919487
 30
0.0
 10
96.326795
 20
143.250408
 30
0.0
 10
96.569586
 20
142.910285
 30
0.0
 11
96.732016
 21
146.184291
 31
0.0
 11
96.034863
 21
145.172737
 31
0.0
 11
95.975961
 21
143.985948
 31
0.0
 11
96.569586
 21
142.910285
 31
0.0
  0
SPLINE
  5
155
330
1F
100
AcDbEntity
  8
GEOMETRY
 62
1
100
AcDbSpline
 70
0
 71
3
 72
10
 73
6
 74
4
 40
0.0
 40
0.0
 40
0.0
 40
0.0
 40
1.102874
 40
2.176004
 40
3.276875
 40
3.276875
 40
3.276875
 40
3.276875
 10
82.448464
 20
157.034054
 30
0.0
 10
82.748909
 20
156.812227
 30
0.0
 10
83.341697
 20
156.374557
 30
0.0
 10
84.519615
 20
156.332514
 30
0.0
 10
85.142067
 20
156.725334
 30
0.0
 10
85.457264
 20
156.92425
 30
0.0
 11
82.448464
 21
157.034054
 31
0.0
 11
83.398455
 21
156.473832
 31
0.0
 11
84.470896
 21
156.435381
 31
0.0
 11
85.457264
 21
156.92425
 31
0.0
  0
SPLINE
  5
156
330
1F
100
AcDbEntity
  8
GEOMETRY
 62
1
100
AcDbSpline
 70
0
 71
3
 72
10
 73
6
 74
4
 40
0.0
 40
0.0
 40
0.0
 40
0.0
 40
1.208002
 40
2.377545
 40
3.585665
 40
3.585665
 40
3.585665
 40
3.585665
 10
80.995923
 20
161.835664
 30
0.0
 10
80.73338
 20
161.520014
 30
0.0
 10
80.216652
 20
160.898763
 30
0.0
 10
80.170145
 20
159.591567
 30
0.0
 10
80.641448
 20
158.935136
 30
0.0
 10
80.880922
 20
158.601596
 30
0.0
 11
80.995923
 21
161.835664
 31
0.0
 11
80.333728
 21
160.825335
 31
0.0
 11
80.292141
 21
159.656531
 31
0.0
 11
80.880922
 21
158.601596
 31
0.0
  0
SPLINE
  5
157
330
1F
100
AcDbEntity
  8
GEOMETRY
 62
1
100
AcDbSpline
 70
0
 71
3
 72
10
 73
6
 74
4
 40
0.0
 40
0.0
 40
0.0
 40
0.0
 40
1.207704
 40
2.37711
 40
3.585102
 40
3.585102
 40
3.585102
 40
3.585102
 10
186.106601
 20
158.60157
 30
0.0
 10
186.345946
 20
158.935024
 30
0.0
 10
186.817046
 20
159.591357
 30
0.0
 10
186.770576
 20
160.898293
 30
0.0
 10
186.254041
 20
161.519622
 30
0.0
 10
185.991581
 20
161.835328
 30
0.0
 11
186.106601
 21
158.60157
 31
0.0
 11
186.695082
 21
159.656197
 31
0.0
 11
186.653556
 21
160.824866
 31
0.0
 11
185.991581
 21
161.835328
 31
0.0
  0
SPLINE
  5
158
330
1F
100
AcDbEntity
  8
GEOMETRY
 62
1
100
AcDbSpline
 70
0
 71
3
 72
10
 73
6
 74
4
 40
0.0
 40
0.0
 40
0.0
 40
0.0
 40
1.103862
 40
2.174803
 40
3.275567
 40
3.275567
 40
3.275567
 40
3.275567
 10
181.530633
 20
156.924176
 30
0.0
 10
181.847261
 20
156.725959
 30
0.0
 10
182.471072
 20
156.335438
 30
0.0
 10
183.648043
 20
156.374999
 30
0.0
 10
184.239522
 20
156.812481
 30
0.0
 10
184.539323
 20
157.034225
 30
0.0
 11
181.530633
 21
156.924176
 31
0.0
 11
182.521126
 21
156.436902
 31
0.0
 11
183.591402
 21
156.474648
 31
0.0
 11
184.539323
 21
157.034225
 31
0.0
  0
SPLINE
  5
159
330
1F
100
AcDbEntity
  8
GEOMETRY
 62
1
100
AcDbSpline
 70
0
 71
3
 72
10
 73
6
 74
4
 40
0.0
 40
0.0
 40
0.0
 40
0.0
 40
11.877869
 40
23.530838
 40
35.40847
 40
35.40847
 40
35.40847
 40
35.40847
 10
150.238832
 20
125.311711
 30
0.0
 10
146.706674
 20
127.186043
 30
0.0
 10
139.709237
 20
130.89922
 30
0.0
 10
127.278828
 20
130.899377
 30
0.0
 10
120.281504
 20
127.186097
 30
0.0
 10
116.749439
 20
125.311731
 30
0.0
 11
150.238832
 21
125.311711
 31
0.0
 11
139.320482
 21
129.988612
 31
0.0
 11
127.667513
 21
129.988672
 31
0.0
 11
116.749439
 21
125.311731
 31
0.0
  0
SPLINE
  5
15a
330
1F
100
AcDbEntity
  8
GEOMETRY
 62
1
100
AcDbSpline
 70
0
 71
3
 72
10
 73
6
 74
4
 40
0.0
 40
0.0
 40
0.0
 40
0.0
 40
14.848185
 40
29.405405
 40
44.253205
 40
44.253205
 40
44.253205
 40
44.253205
 10
154.375383
 20
130.510195
 30
0.0
 10
149.980267
 20
132.895631
 30
0.0
 10
141.276162
 20
137.619757
 30
0.0
 10
125.711314
 20
137.619951
 30
0.0
 10
117.007295
 20
132.8959
 30
0.0
 10
112.612278
 20
130.510533
 30
0.0
 11
154.375383
 21
130.510195
 31
0.0
 11
140.77228
 21
136.462015
 31
0.0
 11
126.21506
 21
136.462131
 31
0.0
 11
112.612278
 21
130.510533
 31
0.0
  0
SPLINE
  5
15b
330
1F
100
AcDbEntity
  8
GEOMETRY
 62
1
100
AcDbSpline
 70
0
 71
3
 72
10
 73
6
 74
4
 40
0.0
 40
0.0
 40
0.0
 40
0.0
 40
23.346868
 40
46.151803
 40
69.49897
 40
69.49897
 40
69.49897
 40
69.49897
 10
165.888062
 20
141.18742
 30
0.0
 10
159.154709
 20
145.284868
 30
0.0
 10
145.844299
 20
153.384653
 30
0.0
 10
121.144098
 20
153.384653
 30
0.0
 10
107.833566
 20
145.284885
 30
0.0
 10
101.100109
 20
141.18742
 30
0.0
 11
165.888062
 21
141.18742
 31
0.0
 11
144.896712
 21
151.406983
 31
0.0
 11
122.091777
 21
151.407013
 31
0.0
 11
101.100109
 21
141.18742
 31
0.0
  0
SPLINE
  5
15c
330
1F
100
AcDbEntity
  8
GEOMETRY
 62
1
100
AcDbSpline
 70
0
 71
3
 72
10
 73
6
 74
4
 40
0.0
 40
0.0
 40
0.0
 40
0.0
 40
26.518918
 40
52.415664
 40
78.934834
 40
78.934834
 40
78.934834
 40
78.934834
 10
170.254031
 20
146.185609
 30
0.0
 10
162.619913
 20
150.865765
 30
0.0
 10
147.530784
 20
160.116274
 30
0.0
 10
119.456798
 20
160.11627
 30
0.0
 10
104.367574
 20
150.86576
 30
0.0
 10
96.733372
 20
146.185582
 30
0.0
 11
170.254031
 21
146.185609
 31
0.0
 11
146.442204
 21
157.858222
 31
0.0
 11
120.545458
 21
157.858241
 31
0.0
 11
96.733372
 21
146.185582
 31
0.0
  0
SPLINE
  5
15d
330
1F
100
AcDbEntity
  8
GEOMETRY
 62
1
100
AcDbSpline
 70
0
 71
3
 72
10
 73
6
 74
4
 40
0.0
 40
0.0
 40
0.0
 40
0.0
 40
34.868219
 40
68.862571
 40
103.730554
 40
103.730554
 40
103.730554
 40
103.730554
 10
181.530633
 20
156.924176
 30
0.0
 10
171.613081
 20
163.294365
 30
0.0
 10
152.026531
 20
175.875095
 30
0.0
 10
114.961233
 20
175.875122
 30
0.0
 10
95.374771
 20
163.294388
 30
0.0
 10
85.457298
 20
156.924217
 30
0.0
 11
181.530633
 21
156.924176
 31
0.0
 11
150.491021
 21
172.809235
 31
0.0
 11
116.496668
 21
172.809231
 31
0.0
 11
85.457298
 21
156.924217
 31
0.0
  0
SPLINE
  5
15e
330
1F
100
AcDbEntity
  8
GEOMETRY
 62
1
100
AcDbSpline
 70
0
 71
3
 72
10
 73
6
 74
4
 40
0.0
 40
0.0
 40
0.0
 40
0.0
 40
38.12543
 40
75.290513
 40
113.415936
 40
113.415936
 40
113.415936
 40
113.415936
 10
185.991614
 20
161.835295
 30
0.0
 10
175.158294
 20
168.819368
 30
0.0
 10
153.764536
 20
182.61159
 30
0.0
 10
113.223164
 20
182.611716
 30
0.0
 10
91.829319
 20
168.819633
 30
0.0
 10
80.995956
 20
161.835631
 30
0.0
 11
185.991614
 21
161.835295
 31
0.0
 11
152.076379
 21
179.250956
 31
0.0
 11
114.911296
 21
179.251073
 31
0.0
 11
80.995956
 21
161.835631
 31
0.0
  0
LWPOLYLINE
  5
15f
330
1F
100
AcDbEntity
  8
GEOMETRY
 62
1
100
AcDbPolyline
 90
2
 70
0
 10
113.921521
 20
125.56232
 10
112.335035
 20
127.148806
  0
SPLINE
  5
160
330
1F
100
AcDbEntity
  8
GEOMETRY
 62
1
100
AcDbSpline
 70
0
 71
3
 72
25
 73
21
 74
19
 40
0.0
 40
0.0
 40
0.0
 40
0.0
 40
4.247185
 40
8.433586
 40
12.680771
 40
16.927956
 40
21.114357
 40
25.361542
 40
29.608727
 40
33.795129
 40
38.042314
 40
42.289499
 40
46.4759
 40
50.723085
 40
54.97027
 40
59.156671
 40
63.403856
 40
67.651041
 40
71.837442
 40
76.084627
 40
76.084627
 40
76.084627
 40
76.084627
 10
145.670838
 20
101.309652
 30
0.0
 10
145.525422
 20
99.886703
 30
0.0
 10
145.23667
 20
97.06117
 30
0.0
 10
142.996424
 20
93.327185
 30
0.0
 10
139.716326
 20
90.551064
 30
0.0
 10
135.654542
 20
89.078703
 30
0.0
 10
131.344531
 20
89.078703
 30
0.0
 10
127.288435
 20
90.551064
 30
0.0
 10
123.985623
 20
93.327185
 30
0.0
 10
121.829773
 20
97.06117
 30
0.0
 10
121.077059
 20
101.309652
 30
0.0
 10
121.829773
 20
105.558134
 30
0.0
 10
123.985623
 20
109.29212
 30
0.0
 10
127.288435
 20
112.06824
 30
0.0
 10
131.344531
 20
113.540602
 30
0.0
 10
135.654542
 20
113.540602
 30
0.0
 10
139.716326
 20
112.06824
 30
0.0
 10
142.996424
 20
109.29212
 30
0.0
 10
145.23667
 20
105.558134
 30
0.0
 10
145.525422
 20
102.732601
 30
0.0
 10
145.670838
 20
101.309652
 30
0.0
 11
145.670838
 21
101.309652
 31
0.0
 11
144.929953
 21
97.127587
 31
0.0
 11
142.836752
 21
93.502057
 31
0.0
 11
139.58542
 21
90.769399
 31
0.0
 11
135.593203
 21
89.319992
 31
0.0
 11
131.406802
 21
89.319992
 31
0.0
 11
127.414584
 21
90.769399
 31
0.0
 11
124.163252
 21
93.502057
 31
0.0
 11
122.070052
 21
97.127587
 31
0.0
 11
121.329166
 21
101.309652
 31
0.0
 11
122.070052
 21
105.491717
 31
0.0
 11
124.163252
 21
109.117247
 31
0.0
 11
127.414584
 21
111.849905
 31
0.0
 11
131.406802
 21
113.299312
 31
0.0
 11
135.593203
 21
113.299312
 31
0.0
 11
139.58542
 21
111.849905
 31
0.0
 11
142.836752
 21
109.117247
 31
0.0
 11
144.929953
 21
105.491717
 31
0.0
 11
145.670838
 21
101.309652
 31
0.0
  0
SPLINE
  5
161
330
1F
100
AcDbEntity
  8
GEOMETRY
 62
5
100
AcDbSpline
 70
0
 71
3
 72
13
 73
9
 74
7
 40
0.0
 40
0.0
 40
0.0
 40
0.0
 40
9.396371
 40
14.950599
 40
19.323831
 40
23.749698
 40
26.587906
 40
30.059148
 40
30.059148
 40
30.059148
 40
30.059148
 10
230.12962
 20
232.483254
 30
0.0
 10
230.175877
 20
229.479291
 30
0.0
 10
230.249478
 20
224.699674
 30
0.0
 10
229.733851
 20
217.264286
 30
0.0
 10
234.86032
 20
215.357128
 30
0.0
 10
239.027563
 20
215.675792
 30
0.0
 10
241.329366
 20
218.852218
 30
0.0
 10
241.236415
 20
220.999783
 30
0.0
 10
241.185276
 20
222.181299
 30
0.0
 11
230.12962
 21
232.483254
 31
0.0
 11
230.081739
 21
223.087006
 31
0.0
 11
230.895134
 21
217.592659
 31
0.0
 11
234.843545
 21
215.712442
 31
0.0
 11
239.208648
 21
216.443311
 31
0.0
 11
240.901078
 21
218.72171
 31
0.0
 11
241.185276
 21
222.181299
 31
0.0
  0
SPLINE
  5
162
330
1F
100
AcDbEntity
  8
GEOMETRY
 62
5
100
AcDbSpline
 70
0
 71
3
 72
16
 73
12
 74
10
 40
0.0
 40
0.0
 40
0.0
 40
0.0
 40
6.654184
 40
9.677059
 40
14.195232
 40
18.398069
 40
21.878425
 40
30.087864
 40
41.392284
 40
48.757163
 40
52.402801
 40
52.402801
 40
52.402801
 40
52.402801
 10
241.185276
 20
222.181299
 30
0.0
 10
240.932407
 20
224.391498
 30
0.0
 10
240.564664
 20
227.605751
 30
0.0
 10
243.05968
 20
232.382662
 30
0.0
 10
247.400785
 20
231.489249
 30
0.0
 10
251.982892
 20
232.261912
 30
0.0
 10
254.17931
 20
226.510835
 30
0.0
 10
253.445454
 20
219.049023
 30
0.0
 10
253.287268
 20
210.349953
 30
0.0
 10
253.835857
 20
202.07864
 30
0.0
 10
250.866592
 20
199.686424
 30
0.0
 10
249.883453
 20
198.894349
 30
0.0
 11
241.185276
 21
222.181299
 31
0.0
 11
241.404772
 21
228.831862
 31
0.0
 11
243.031796
 21
231.379521
 31
0.0
 11
247.531141
 21
231.791565
 31
0.0
 11
251.70857
 21
231.330127
 31
0.0
 11
253.349459
 21
228.260866
 31
0.0
 11
253.634128
 21
220.056364
 31
0.0
 11
253.472642
 21
208.753097
 31
0.0
 11
252.477672
 21
201.455737
 31
0.0
 11
249.883453
 21
198.894349
 31
0.0
  0
SPLINE
  5
163
330
1F
100
AcDbEntity
  8
GEOMETRY
 62
5
100
AcDbSpline
 70
0
 71
3
 72
10
 73
6
 74
4
 40
0.0
 40
0.0
 40
0.0
 40
0.0
 40
39.608097
 40
79.061057
 40
116.432921
 40
116.432921
 40
116.432921
 40
116.432921
 10
249.883453
 20
198.894349
 30
0.0
 10
236.680844
 20
198.948721
 30
0.0
 10
210.327338
 20
199.057254
 30
0.0
 10
171.516291
 20
199.021294
 30
0.0
 10
145.908043
 20
199.058265
 30
0.0
 10
133.450768
 20
199.07625
 30
0.0
 11
249.883453
 21
198.894349
 31
0.0
 11
210.275568
 21
199.024099
 31
0.0
 11
170.822611
 21
199.036659
 31
0.0
 11
133.450768
 21
199.07625
 31
0.0
  0
SPLINE
  5
164
330
1F
100
AcDbEntity
  8
GEOMETRY
 62
5
100
AcDbSpline
 70
0
 71
3
 72
10
 73
6
 74
4
 40
0.0
 40
0.0
 40
0.0
 40
0.0
 40
37.37186
 40
76.824881
 40
116.432921
 40
116.432921
 40
116.432921
 40
116.432921
 10
133.450768
 20
199.07625
 30
0.0
 10
120.993494
 20
199.058265
 30
0.0
 10
95.385227
 20
199.021295
 30
0.0
 10
56.574179
 20
199.057253
 30
0.0
 10
30.220672
 20
198.948721
 30
0.0
 10
17.018082
 20
198.894349
 30
0.0
 11
133.450768
 21
199.07625
 31
0.0
 11
96.078929
 21
199.03666
 31
0.0
 11
56.625909
 21
199.024098
 31
0.0
 11
17.018082
 21
198.894349
 31
0.0
  0
LWPOLYLINE
  5
165
330
1F
100
AcDbEntity
  8
GEOMETRY
 62
1
100
AcDbPolyline
 90
1
 70
1
 10
145.670838
 20
101.309652
  0
SPLINE
  5
166
330
1F
100
AcDbEntity
  8
GEOMETRY
 62
5
100
AcDbSpline
 70
0
 71
3
 72
25
 73
21
 74
19
 40
0.0
 40
0.0
 40
0.0
 40
0.0
 40
3.64564
 40
11.010517
 40
22.314938
 40
30.524376
 40
34.004733
 40
38.207567
 40
42.725784
 40
45.7487
 40
52.40288
 40
55.874135
 40
58.712487
 40
63.138483
 40
67.509422
 40
73.027969
 40
82.326711
 40
91.678566
 40
102.447048
 40
127.858518
 40
127.858518
 40
127.858518
 40
127.858518
 10
17.018082
 20
198.894349
 30
0.0
 10
16.034943
 20
199.686424
 30
0.0
 10
13.065677
 20
202.078641
 30
0.0
 10
13.614288
 20
210.349946
 30
0.0
 10
13.455973
 20
219.049061
 30
0.0
 10
12.722439
 20
226.510762
 30
0.0
 10
14.91831
 20
232.262027
 30
0.0
 10
19.502409
 20
231.488677
 30
0.0
 10
23.836222
 20
232.384644
 30
0.0
 10
26.357077
 20
227.598737
 30
0.0
 10
25.693612
 20
223.289112
 30
0.0
 10
25.582734
 20
218.848627
 30
0.0
 10
27.870408
 20
215.676573
 30
0.0
 10
32.040848
 20
215.361361
 30
0.0
 10
37.158626
 20
217.240084
 30
0.0
 10
36.65313
 20
224.705133
 30
0.0
 10
36.802351
 20
231.890409
 30
0.0
 10
36.779823
 20
243.618147
 30
0.0
 10
18.86237
 20
245.929296
 30
0.0
 10
7.471419
 20
245.696717
 30
0.0
 10
-0.529167
 20
245.533362
 30
0.0
 11
17.018082
 21
198.894349
 31
0.0
 11
14.423863
 21
201.455738
 31
0.0
 11
13.428893
 21
208.753097
 31
0.0
 11
13.267407
 21
220.056364
 31
0.0
 11
13.552077
 21
228.260866
 31
0.0
 11
15.192967
 21
231.330127
 31
0.0
 11
19.370394
 21
231.791565
 31
0.0
 11
23.869783
 21
231.379521
 31
0.0
 11
25.496884
 21
228.831862
 31
0.0
 11
25.716259
 21
222.181299
 31
0.0
 11
26.000602
 21
218.72171
 31
0.0
 11
27.693275
 21
216.443311
 31
0.0
 11
32.058509
 21
215.712442
 31
0.0
 11
36.006824
 21
217.58752
 31
0.0
 11
36.819551
 21
223.045894
 31
0.0
 11
36.769849
 21
232.344503
 31
0.0
 11
35.073742
 21
241.541264
 31
0.0
 11
24.876763
 21
245.002742
 31
0.0
 11
-0.529167
 21
245.533362
 31
0.0
  0
LWPOLYLINE
  5
167
330
1F
100
AcDbEntity
  8
GEOMETRY
 62
5
100
AcDbPolyline
 90
4
 70
0
 10
-0.529167
 20
245.533362
 10
-0.529167
 20
-2.466485
 10
269.470898
 20
-2.466485
 10
269.470898
 20
245.533362
  0
SPLINE
  5
168
330
1F
100
AcDbEntity
  8
GEOMETRY
 62
5
100
AcDbSpline
 70
0
 71
3
 72
10
 73
6
 74
4
 40
0.0
 40
0.0
 40
0.0
 40
0.0
 40
25.816764
 40
37.556671
 40
46.940554
 40
46.940554
 40
46.940554
 40
46.940554
 10
269.470898
 20
245.533362
 30
0.0
 10
261.344244
 20
245.615085
 30
0.0
 10
249.522077
 20
245.733972
 30
0.0
 10
230.959837
 20
243.841846
 30
0.0
 10
230.384987
 20
235.977054
 30
0.0
 10
230.12962
 20
232.483254
 30
0.0
 11
269.470898
 21
245.533362
 31
0.0
 11
243.659501
 21
245.007005
 31
0.0
 11
232.430728
 21
241.580625
 31
0.0
 11
230.12962
 21
232.483254
 31
0.0
  0
LWPOLYLINE
  5
169
330
1F
100
AcDbEntity
  8
GEOMETRY
 62
5
100
AcDbPolyline
 90
1
 70
1
 10
230.12962
 20
232.483254
  0
ENDSEC
  0
SECTION
  2
OBJECTS
  0
DICTIONARY
  5
C
330
0
100
AcDbDictionary
281
1
  3
ACAD_GROUP
350
D
  3
ACAD_MLINESTYLE
350
17
  3
ACAD_COLOR
350
1005A
  3
ACAD_LAYOUT
350
1005B
  3
ACAD_MATERIAL
350
1005C
  3
ACAD_MLEADERSTYLE
350
1005D
  3
ACAD_PLOTSETTINGS
350
1005E
  3
ACAD_PLOTSTYLENAME
350
1005F
  3
ACAD_SCALELIST
350
10061
  3
ACAD_TABLESTYLE
350
10062
  3
ACAD_VISUALSTYLE
350
10063
  3
EZDXF_META
350
1006F
  0
DICTIONARY
  5
D
330
C
100
AcDbDictionary
281
1
  0
DICTIONARY
  5
1A
330
C
100
AcDbDictionary
281
1
  0
DICTIONARY
  5
17
330
C
100
AcDbDictionary
281
1
  3
STANDARD
350
18
  0
DICTIONARY
  5
19
330
C
100
AcDbDictionary
281
1
  0
DICTIONARY
  5
1005A
330
C
100
AcDbDictionary
281
1
  0
DICTIONARY
  5
1005B
330
C
100
AcDbDictionary
281
1
  3
Model
350
10064
  3
Layout1
350
10065
  0
DICTIONARY
  5
1005C
330
C
100
AcDbDictionary
281
1
  3
ByBlock
350
10066
  3
ByLayer
350
10067
  3
Global
350
10068
  0
DICTIONARY
  5
1005D
330
C
100
AcDbDictionary
281
1
  3
Standard
350
1006B
  0
DICTIONARY
  5
1005E
330
C
100
AcDbDictionary
281
1
  0
ACDBDICTIONARYWDFLT
  5
1005F
330
C
100
AcDbDictionary
281
1
  3
Normal
350
10060
100
AcDbDictionaryWithDefault
340
10060
  0
ACDBPLACEHOLDER
  5
10060
330
1005F
  0
DICTIONARY
  5
10061
330
C
100
AcDbDictionary
281
1
  0
DICTIONARY
  5
10062
330
C
100
AcDbDictionary
281
1
  0
DICTIONARY
  5
10063
330
C
100
AcDbDictionary
281
1
  0
LAYOUT
  5
10064
330
1005B
100
AcDbPlotSettings
  1

  4
A3
  6

 40
7.5
 41
20.0
 42
7.5
 43
20.0
 44
420.0
 45
297.0
 46
0.0
 47
0.0
 48
0.0
 49
0.0
140
0.0
141
0.0
142
1.0
143
1.0
 70
1024
 72
1
 73
0
 74
5
  7

 75
16
 76
0
 77
2
 78
300
147
1.0
148
0.0
149
0.0
100
AcDbLayout
  1
Model
 70
1
 71
0
 10
0.0
 20
0.0
 11
420.0
 21
297.0
 12
0.0
 22
0.0
 32
0.0
 14
1e+20
 24
1e+20
 34
1e+20
 15
-1e+20
 25
-1e+20
 35
-1e+20
146
0.0
 13
0.0
 23
0.0
 33
0.0
 16
1.0
 26
0.0
 36
0.0
 17
0.0
 27
1.0
 37
0.0
 76
1
330
1F
  0
LAYOUT
  5
10065
330
1005B
100
AcDbPlotSettings
  1

  4
A3
  6

 40
7.5
 41
20.0
 42
7.5
 43
20.0
 44
420.0
 45
297.0
 46
0.0
 47
0.0
 48
0.0
 49
0.0
140
0.0
141
0.0
142
1.0
143
1.0
 70
0
 72
1
 73
0
 74
5
  7

 75
16
 76
0
 77
2
 78
300
147
1.0
148
0.0
149
0.0
100
AcDbLayout
  1
Layout1
 70
1
 71
1
 10
0.0
 20
0.0
 11
420.0
 21
297.0
 12
0.0
 22
0.0
 32
0.0
 14
1e+20
 24
1e+20
 34
1e+20
 15
-1e+20
 25
-1e+20
 35
-1e+20
146
0.0
 13
0.0
 23
0.0
 33
0.0
 16
1.0
 26
0.0
 36
0.0
 17
0.0
 27
1.0
 37
0.0
 76
1
330
1B
  0
MATERIAL
  5
10066
102
{ACAD_REACTORS
330
1005C
102
}
330
1005C
100
AcDbMaterial
  1
ByBlock
  2

 70
0
 40
1.0
 71
1
 41
1.0
 91
-1023410177
 42
1.0
 72
1
  3

 73
1
 74
1
 75
1
 44
0.5
 73
0
 45
1.0
 46
1.0
 77
1
  4

 78
1
 79
1
170
1
 48
1.0
171
1
  6

172
1
173
1
174
1
140
1.0
141
1.0
175
1
  7

176
1
177
1
178
1
143
1.0
179
1
  8

270
1
271
1
272
1
145
1.0
146
1.0
273
1
  9

274
1
275
1
276
1
 42
1.0
 72
1
  3

 73
1
 74
1
 75
1
 94
63
  0
MATERIAL
  5
10067
102
{ACAD_REACTORS
330
1005C
102
}
330
1005C
100
AcDbMaterial
  1
ByLayer
  2

 70
0
 40
1.0
 71
1
 41
1.0
 91
-1023410177
 42
1.0
 72
1
  3

 73
1
 74
1
 75
1
 44
0.5
 73
0
 45
1.0
 46
1.0
 77
1
  4

 78
1
 79
1
170
1
 48
1.0
171
1
  6

172
1
173
1
174
1
140
1.0
141
1.0
175
1
  7

176
1
177
1
178
1
143
1.0
179
1
  8

270
1
271
1
272
1
145
1.0
146
1.0
273
1
  9

274
1
275
1
276
1
 42
1.0
 72
1
  3

 73
1
 74
1
 75
1
 94
63
  0
MATERIAL
  5
10068
102
{ACAD_REACTORS
330
1005C
102
}
330
1005C
100
AcDbMaterial
  1
Global
  2

 70
0
 40
1.0
 71
1
 41
1.0
 91
-1023410177
 42
1.0
 72
1
  3

 73
1
 74
1
 75
1
 44
0.5
 73
0
 45
1.0
 46
1.0
 77
1
  4

 78
1
 79
1
170
1
 48
1.0
171
1
  6

172
1
173
1
174
1
140
1.0
141
1.0
175
1
  7

176
1
177
1
178
1
143
1.0
179
1
  8

270
1
271
1
272
1
145
1.0
146
1.0
273
1
  9

274
1
275
1
276
1
 42
1.0
 72
1
  3

 73
1
 74
1
 75
1
 94
63
  0
MLEADERSTYLE
  5
1006B
102
{ACAD_REACTORS
330
1005D
102
}
330
1005D
100
AcDbMLeaderStyle
179
2
170
2
171
1
172
0
 90
2
 40
0.0
 41
0.0
173
1
 91
-1056964608
 92
-2
290
1
 42
2.0
291
1
 43
8.0
  3
Standard
 44
4.0
300

342
11
174
1
175
1
176
0
178
1
 93
-1056964608
 45
4.0
292
0
297
0
 46
4.0
 94
-1056964608
 47
1.0
 49
1.0
140
1.0
294
1
141
0.0
177
0
142
1.0
295
0
296
0
143
3.75
271
0
272
9
273
9
  0
DICTIONARY
  5
1006F
330
C
100
AcDbDictionary
280
1
281
1
  3
WRITTEN_BY_EZDXF
350
10070
  0
DICTIONARYVAR
  5
10070
330
1006F
100
DictionaryVariables
280
0
  1
1.4.3 @ 2026-01-11T02:37:59.168899+00:00
  0
ENDSEC
  0
EOF
